<?xml version="1.0" standalone="no"?>
<!DOCTYPE svg PUBLIC "-//W3C//DTD SVG 20010904//EN"
 "http://www.w3.org/TR/2001/REC-SVG-20010904/DTD/svg10.dtd">
<svg version="1.0" xmlns="http://www.w3.org/2000/svg"
 width="1000.000000pt" height="667.000000pt" viewBox="0 0 1000.000000 667.000000"
 preserveAspectRatio="xMidYMid meet">
<metadata>
Created by potrace 1.15, written by Peter Selinger 2001-2017
</metadata>
<g transform="translate(0.000000,667.000000) scale(0.100000,-0.100000)"
fill="#000000" stroke="none">
<path d="M8850 6658 c0 -10 -4 -18 -9 -18 -15 0 -48 -62 -56 -105 -3 -22 -12
-49 -19 -60 -16 -27 -73 -172 -82 -210 -3 -16 -12 -40 -20 -52 -25 -39 -53
-124 -47 -140 4 -10 2 -14 -5 -9 -13 8 -24 -25 -16 -50 4 -13 3 -15 -3 -7 -6
9 -18 -8 -40 -55 -61 -136 -93 -268 -82 -342 12 -85 11 -342 -2 -381 -7 -19
-19 -43 -29 -54 -9 -11 -23 -39 -30 -63 -19 -62 -28 -60 -29 7 0 45 4 64 20
82 15 17 19 34 16 59 -2 20 2 44 10 57 14 20 17 83 14 258 l-2 60 -24 -50
c-14 -27 -25 -58 -25 -68 0 -10 -4 -27 -10 -37 -5 -10 -13 -131 -16 -269 l-7
-251 24 -1 c13 0 128 0 255 0 l231 0 7 -46 c3 -25 6 -74 6 -109 l0 -64 -35 0
c-21 0 -35 5 -35 13 0 9 -2 9 -8 1 -4 -7 -32 -15 -63 -19 -76 -9 -69 1 -227
-325 -120 -248 -116 -236 -107 -328 9 -93 11 -118 19 -299 5 -90 3 -143 -3
-147 -5 -4 -7 -16 -4 -29 8 -33 4 -77 -9 -100 -6 -12 -12 -56 -13 -99 -2 -42
-8 -98 -14 -125 -6 -26 -13 -60 -16 -75 -3 -15 -19 -43 -36 -62 -29 -34 -30
-36 -20 -93 6 -32 10 -76 9 -97 -1 -23 4 -42 10 -44 7 -2 9 -9 5 -15 -13 -21
-14 -57 -2 -57 7 0 9 -11 5 -32 -11 -50 -6 -132 7 -137 17 -6 -73 -31 -113
-31 -19 0 -51 -5 -70 -10 -30 -8 -38 -17 -52 -55 l-17 -45 22 5 c83 19 193 32
208 25 13 -8 16 -29 15 -142 0 -73 -2 -123 -4 -110 -4 25 -37 31 -46 7 -3 -8
-18 -15 -33 -15 l-28 -1 23 -18 c12 -11 22 -22 22 -26 0 -4 -6 -2 -14 4 -11 9
-15 9 -18 0 -2 -6 -14 -12 -26 -13 -23 -1 -27 -21 -4 -21 8 0 19 -9 25 -21 10
-16 22 -20 57 -19 42 1 45 -1 50 -29 5 -28 6 -26 28 30 13 32 28 68 33 79 17
39 89 255 89 269 0 8 7 17 16 20 22 8 22 8 26 -11 4 -23 48 67 48 98 0 18 -2
19 -15 9 -12 -10 -15 -9 -15 6 0 11 -5 26 -10 34 -7 12 -12 12 -22 2 -6 -6
-26 -11 -42 -11 -18 1 -23 3 -13 6 16 4 17 16 11 141 -4 98 -3 133 5 122 9
-13 11 -13 11 3 0 9 -4 17 -10 17 -5 0 -10 9 -10 20 0 11 5 20 10 20 6 0 10 6
10 14 0 8 3 16 8 18 4 2 18 25 32 51 14 26 34 58 45 72 11 13 38 53 60 89 22
36 43 66 48 66 4 0 7 5 7 10 0 6 5 16 10 23 6 7 42 61 81 121 115 179 167 231
171 174 0 -13 2 -34 4 -48 1 -14 4 -75 5 -136 3 -86 0 -116 -11 -129 -12 -15
-12 -19 3 -30 13 -9 17 -27 17 -79 0 -37 -3 -65 -8 -62 -4 2 -7 -13 -7 -35 0
-21 3 -39 7 -39 5 0 6 -12 3 -27 -6 -28 0 -19 34 57 4 8 1 136 -6 284 -7 148
-11 271 -9 273 1 2 46 6 99 10 l96 6 0 -133 c1 -72 -1 -135 -3 -139 -3 -4 -8
-218 -11 -477 -6 -398 -17 -741 -25 -779 -1 -5 -2 -62 -1 -125 1 -100 3 -112
16 -100 10 11 14 45 15 140 1 69 6 235 11 370 11 265 27 867 29 1098 l1 142
25 0 c21 0 24 -4 24 -41 0 -24 4 -38 10 -34 6 3 10 15 10 27 0 11 13 32 28 46
35 33 46 81 28 116 -7 14 -16 23 -19 19 -4 -3 -7 1 -7 10 0 9 5 19 10 22 6 3
10 13 10 22 0 12 -3 13 -13 4 -10 -8 -17 -7 -25 1 -9 9 -12 9 -12 0 0 -7 -7
-12 -15 -12 -8 0 -19 -9 -25 -20 -8 -15 -17 -18 -40 -13 -26 5 -30 2 -30 -16
0 -11 -6 -21 -12 -22 -7 0 -27 -2 -45 -5 -25 -3 -31 -1 -27 11 4 8 1 15 -5 15
-6 0 -11 -6 -11 -13 0 -19 -175 -43 -194 -28 -8 7 -20 10 -27 9 -7 -2 -15 11
-20 30 -12 56 -23 56 -47 2 -12 -28 -44 -79 -70 -114 -26 -34 -51 -69 -57 -78
-29 -47 -177 -258 -180 -258 -5 0 72 126 225 368 63 100 121 182 128 182 15 0
16 -12 0 -28 -9 -9 -7 -12 10 -12 13 0 33 11 45 25 18 20 36 26 97 34 41 4 76
7 78 6 1 -1 -7 -13 -18 -28 -11 -14 -20 -27 -20 -29 0 -6 70 -2 77 5 3 4 1 7
-6 7 -21 0 18 48 45 54 22 6 24 11 24 59 0 74 -7 81 -61 63 -24 -7 -69 -20
-99 -27 -30 -7 -60 -19 -67 -26 -7 -9 -13 -10 -17 -4 -4 5 -23 7 -43 4 -32 -5
-35 -4 -30 11 4 10 7 23 7 30 0 6 20 18 45 25 52 15 49 6 36 161 -5 58 -12
193 -15 300 -4 107 -9 241 -12 296 -5 73 -3 103 5 109 11 6 171 9 177 3 3 -4
25 -299 31 -436 6 -120 6 -123 24 -105 16 15 19 37 22 131 2 88 7 117 20 132
9 11 17 31 17 45 0 35 17 40 28 8 10 -28 10 -28 11 8 1 20 9 60 20 90 23 67
371 759 381 759 4 0 11 11 14 24 6 23 68 143 190 364 31 56 56 109 56 117 0
48 -35 -7 -168 -267 -82 -161 -174 -338 -204 -393 -31 -55 -118 -221 -195
-370 -77 -148 -151 -288 -164 -310 l-24 -40 -3 68 -3 68 150 303 c82 166 164
327 182 357 17 30 32 59 33 64 1 6 20 42 43 80 37 63 52 97 53 117 1 4 16 34
34 65 45 80 47 84 111 213 73 146 114 221 131 240 8 10 31 15 68 15 l56 -1 0
183 0 183 -458 0 -457 0 -35 -86 c-37 -94 -49 -109 -51 -67 -1 15 -3 42 -4 58
-2 17 -3 45 -4 63 -1 24 -5 32 -20 32 -25 0 -30 -36 -24 -176 4 -104 3 -117
-22 -180 -15 -38 -35 -82 -45 -99 -10 -16 -21 -45 -25 -63 -4 -19 -11 -30 -17
-26 -6 4 -8 2 -5 -3 4 -6 -1 -28 -10 -49 l-18 -39 -3 40 c-6 66 8 185 21 182
7 -1 12 5 12 13 0 8 -6 14 -12 13 -7 -2 -13 2 -13 8 0 6 7 9 15 6 11 -5 14 3
14 36 0 54 12 137 20 134 5 -2 13 9 10 16 -4 8 -4 115 0 111 5 -5 41 52 41 66
0 6 -9 10 -20 10 -11 0 -20 -6 -20 -12 0 -9 -4 -8 -10 2 -8 13 -10 12 -10 -2z
m-70 -350 c2 -57 4 -121 4 -143 1 -22 -2 -55 -6 -73 -4 -18 -4 -31 1 -28 23
15 -8 -104 -62 -234 -32 -80 -62 -147 -65 -150 -2 -3 -2 45 3 105 4 61 6 130
6 155 -1 33 1 41 9 30 5 -8 10 -10 10 -4 0 5 -5 15 -12 22 -9 9 -7 21 8 51 16
33 20 36 30 23 9 -13 13 -9 19 24 5 21 9 44 10 49 0 6 6 28 12 50 6 22 14 81
17 130 5 100 4 95 10 95 2 0 5 -46 6 -102z m-148 -543 c2 -121 0 -136 -27
-210 -15 -44 -34 -87 -42 -96 -7 -8 -13 -22 -13 -30 0 -8 -5 -21 -10 -29 -7
-10 -10 30 -10 124 0 119 2 137 15 132 11 -4 15 2 16 22 1 15 1 30 0 34 0 4 4
20 10 35 10 26 12 27 19 8 l9 -20 1 20 c5 47 7 82 9 120 1 25 4 36 11 29 5 -5
10 -68 12 -139z m180 -2063 c8 -28 14 -33 34 -29 13 2 24 3 24 1 0 -2 -30 -46
-67 -98 -38 -52 -131 -188 -208 -301 l-140 -207 -5 49 c-3 26 -2 50 2 53 3 3
9 18 12 33 3 15 8 37 11 50 2 12 16 35 30 51 14 16 25 35 25 43 0 8 24 51 54
96 29 45 59 93 66 107 7 13 43 70 79 125 48 73 66 95 69 80 2 -11 8 -35 14
-53z"/>
<path d="M9956 5844 c-9 -8 -16 -19 -16 -24 0 -5 -7 -16 -16 -24 -19 -19 -10
-111 10 -99 6 4 5 -1 -3 -10 -12 -15 -13 -82 -7 -415 17 -905 16 -922 -24
-933 -26 -7 -26 -8 3 -14 9 -2 17 1 17 6 0 5 5 9 10 9 15 0 12 -220 -4 -318
-14 -85 -37 -128 -64 -117 -10 4 -12 0 -8 -11 3 -8 6 -21 6 -27 0 -7 11 1 25
17 14 16 25 33 25 38 0 4 6 7 13 6 17 -4 24 -42 26 -143 1 -47 5 -93 8 -101 3
-8 -2 -25 -11 -39 -21 -32 -22 -121 -1 -129 8 -3 15 -13 15 -21 0 -9 -4 -13
-10 -10 -5 3 -10 -1 -10 -10 0 -9 4 -14 9 -11 5 3 12 -48 15 -117 34 -671 33
-698 34 811 1 782 -2 1422 -6 1422 -4 0 -19 -8 -32 -17 -24 -16 -24 -16 -11 0
11 14 11 17 0 17 -11 0 -11 2 1 9 8 6 17 8 21 5 4 -2 11 1 15 7 4 7 3 9 -3 6
-6 -4 -19 0 -29 8 -19 14 -19 14 1 15 18 1 18 2 4 13 -11 9 -14 20 -8 40 4 15
3 27 -1 27 -11 0 -2 65 16 113 15 41 13 45 -10 21z"/>
<path d="M5356 5717 c-13 -9 -16 -20 -11 -40 4 -15 12 -27 17 -27 11 0 7 -45
-7 -85 -4 -11 5 -1 20 23 15 24 29 41 32 38 8 -7 -45 -86 -56 -86 -10 0 -23
-32 -26 -60 -4 -34 -17 -60 -32 -60 -8 0 -13 -5 -11 -12 2 -6 29 -13 59 -16
58 -4 84 -17 55 -28 -11 -4 -21 -2 -26 6 -4 7 -10 8 -14 2 -9 -14 -216 -14
-216 1 0 7 -4 6 -10 -3 -7 -11 -31 -15 -92 -17 -113 -2 -112 -2 -106 -9 4 -3
97 -5 208 -4 144 0 200 -2 195 -10 -4 -6 -14 -9 -22 -6 -8 4 -11 1 -7 -5 3 -6
15 -9 25 -6 10 3 21 1 24 -3 7 -11 -134 -15 -579 -18 -192 -1 -352 -4 -354 -7
-3 -3 -6 -15 -7 -28 -2 -17 -8 -22 -29 -20 -14 1 -24 -2 -21 -8 10 -15 57 -10
78 9 11 9 17 11 13 4 -4 -6 -1 -19 7 -27 15 -14 27 -10 27 8 0 6 -3 7 -7 4 -5
-5 -33 36 -33 49 0 2 204 4 454 4 371 0 455 -2 465 -13 16 -20 17 -93 1 -112
-8 -10 -9 -15 -1 -15 6 0 11 -5 11 -11 0 -6 -13 -1 -30 11 -16 12 -30 18 -30
13 0 -5 9 -15 20 -23 29 -21 24 -33 -5 -14 -14 9 -28 14 -32 10 -3 -3 -1 -6 5
-6 7 0 12 -5 12 -10 0 -7 -6 -7 -20 0 -14 7 -20 7 -20 0 0 -5 -8 -11 -17 -11
-10 -1 0 -5 22 -9 l40 -7 -47 -2 c-29 0 -48 4 -51 12 -4 7 -6 6 -6 -5 -1 -9
-7 -19 -13 -22 -7 -3 -1 -3 15 -1 15 2 27 -1 27 -6 0 -6 4 -7 10 -4 17 10 80
-6 80 -21 0 -18 -76 -19 -84 -1 -5 10 -7 10 -12 0 -3 -7 -17 -13 -31 -13 -20
0 -24 -4 -20 -19 6 -23 -10 -50 -20 -36 -5 6 -21 11 -37 12 -20 1 -25 -2 -15
-8 11 -7 10 -9 -4 -9 -23 0 -31 23 -17 50 13 25 5 39 -12 22 -7 -7 -25 -12
-41 -12 -26 0 -29 3 -23 25 7 27 -11 36 -20 11 -3 -8 -14 -13 -25 -11 -10 2
-19 1 -19 -3 0 -4 -13 -8 -29 -9 -23 -2 -30 3 -35 22 -6 25 -30 33 -41 15 -3
-5 1 -10 11 -10 13 0 11 -4 -7 -19 -23 -19 -23 -19 -5 -40 19 -20 42 -20 30 1
-5 8 -1 9 10 5 10 -4 20 -7 23 -7 3 0 0 -6 -6 -13 -8 -11 -6 -20 9 -37 16 -18
20 -20 20 -7 0 18 16 23 22 7 2 -6 8 -6 18 0 13 8 12 10 -3 10 -10 0 -15 5
-12 10 3 6 -3 10 -14 10 -12 0 -21 7 -21 15 0 21 16 19 40 -5 24 -24 31 -25
24 -5 -10 24 6 38 21 18 28 -37 -6 -131 -42 -118 -17 6 -17 -10 0 -23 10 -8
16 -6 25 9 7 10 16 19 20 19 9 0 8 -113 -2 -128 -15 -25 -15 -52 0 -52 8 0 12
5 9 10 -9 15 46 11 75 -5 l25 -14 -25 -1 c-18 0 -21 -3 -12 -9 8 -4 13 -11 13
-15 -3 -19 2 -22 35 -18 26 3 35 1 30 -7 -4 -6 -18 -11 -31 -11 -13 0 -26 -4
-30 -10 -3 -5 -13 -6 -22 -3 -11 4 -14 3 -9 -5 4 -7 14 -12 23 -12 8 0 13 -6
10 -13 -3 -9 5 -13 29 -13 19 0 33 5 32 11 -1 5 1 23 5 39 8 29 8 29 67 23 35
-4 62 -3 65 3 7 11 28 -6 37 -30 4 -11 -2 -15 -28 -15 -23 0 -33 4 -29 13 3 8
-8 12 -39 12 -42 0 -42 -1 -38 -30 3 -22 10 -30 25 -30 44 0 7 -10 -54 -14
-35 -3 -67 -5 -71 -5 -5 -1 -8 -9 -8 -19 0 -14 8 -18 35 -18 25 0 34 4 31 13
-4 9 4 13 27 12 18 -1 24 -3 15 -6 -30 -8 -20 -22 12 -18 16 2 32 0 35 -6 10
-15 25 -10 26 9 0 14 2 14 9 -3 l9 -20 1 20 c2 11 2 23 2 26 -1 3 5 6 13 6 8
0 14 -3 13 -6 0 -3 0 -15 2 -26 l1 -20 9 20 c7 17 9 18 9 2 1 -14 6 -16 27
-11 17 4 29 2 35 -7 6 -10 9 -11 9 -1 0 18 27 15 34 -5 6 -15 8 -15 19 2 12
16 15 16 30 1 23 -23 11 -47 -19 -40 -21 5 -24 3 -24 -19 0 -16 -7 -27 -17
-30 -14 -4 -12 -5 5 -6 13 -1 22 -7 22 -17 0 -11 -5 -14 -16 -10 -9 4 -23 1
-30 -5 -11 -9 -14 -8 -14 4 0 9 -8 18 -17 20 -15 4 -14 5 2 6 13 1 21 8 22 21
2 17 -4 20 -45 20 -26 0 -42 -4 -36 -8 6 -4 17 -18 24 -32 7 -14 9 -22 5 -18
-4 4 -13 2 -19 -6 -15 -19 -67 -30 -64 -14 2 7 -5 12 -14 12 -10 -1 -18 2 -18
7 0 5 5 9 10 9 6 0 10 7 10 15 0 9 9 19 20 23 12 4 -27 8 -87 7 l-109 0 11
-22 c5 -13 13 -23 18 -23 4 0 7 -9 7 -20 0 -15 -7 -20 -27 -21 l-28 -1 29 -7
c27 -5 50 -31 29 -31 -5 0 -9 -9 -9 -20 0 -18 4 -21 23 -19 11 1 22 -33 22
-74 1 -23 5 -36 11 -32 6 4 8 11 5 16 -4 5 -2 9 3 9 5 0 13 -10 17 -22 l8 -23
4 23 c2 12 8 22 11 22 4 0 6 18 4 39 -3 26 -8 38 -16 35 -7 -3 -26 1 -42 8
-26 11 -29 17 -23 38 4 14 7 18 8 10 1 -11 4 -11 13 -2 15 15 53 16 79 2 15
-8 19 -7 19 5 0 11 11 15 40 15 29 0 40 -4 40 -15 0 -8 5 -15 10 -15 6 0 10 6
10 13 0 8 3 8 9 -2 6 -10 26 -15 58 -15 47 1 47 1 5 -3 -39 -4 -42 -6 -36 -29
5 -18 2 -24 -10 -24 -21 0 -20 -16 1 -24 15 -6 15 -8 3 -16 -12 -8 -10 -10 10
-11 17 -1 19 -3 8 -6 -10 -2 -18 -11 -18 -19 0 -8 5 -12 10 -9 6 3 10 -3 10
-14 0 -17 6 -21 30 -21 17 0 33 7 39 17 9 17 10 17 29 0 14 -13 22 -15 27 -7
11 17 34 -7 28 -29 -3 -13 -11 -17 -24 -14 -18 5 -23 -5 -22 -44 1 -8 -12 -13
-31 -13 -21 0 -27 3 -17 9 17 11 4 34 -15 27 -7 -3 -18 3 -24 12 -6 11 -12 13
-17 6 -5 -6 -17 -16 -28 -22 -19 -11 -19 -11 5 -12 14 -1 20 -4 13 -6 -16 -7
-5 -34 13 -34 8 0 14 -5 14 -10 0 -6 -3 -9 -7 -9 -5 1 -17 1 -28 -1 l-20 -1
20 -9 c14 -6 4 -9 -37 -9 l-58 -1 11 27 c5 14 8 32 5 39 -3 7 0 15 7 18 7 2
-5 5 -25 5 -21 1 -38 -3 -38 -9 0 -5 8 -10 18 -10 14 0 15 -2 2 -10 -13 -8
-12 -10 4 -10 16 0 17 -2 5 -16 -7 -9 -22 -20 -34 -24 -18 -8 -18 -9 5 -10 18
0 21 -3 11 -9 -9 -6 -4 -10 18 -13 17 -2 31 -2 31 2 0 3 21 4 48 2 26 -2 65
-3 87 -2 62 1 102 -9 102 -25 0 -8 -5 -15 -11 -15 -6 0 -6 -4 2 -8 7 -5 14
-19 17 -31 2 -12 7 -31 10 -42 5 -14 2 -19 -14 -19 -11 0 -24 6 -28 13 -12 21
-53 28 -60 11 -3 -9 -20 -14 -43 -14 -44 0 -70 -8 -70 -21 0 -5 9 -9 20 -9 11
0 20 4 20 8 0 4 9 8 19 9 19 2 73 -46 55 -48 -5 -1 -15 -2 -21 -3 -7 0 -13 -4
-13 -8 0 -39 1 -48 9 -48 5 0 7 9 4 20 -3 11 0 20 6 20 6 0 12 -15 12 -32 1
-18 3 -25 6 -15 5 21 10 21 30 2 18 -18 36 -10 29 13 -4 13 0 17 19 17 16 0
23 -5 21 -12 -8 -19 12 -25 22 -7 11 20 24 5 28 -33 2 -20 -4 -27 -28 -35 -29
-10 -30 -12 -13 -25 17 -11 12 -13 -36 -12 -43 0 -49 2 -31 10 13 5 20 13 17
19 -7 11 -118 13 -177 4 -41 -7 -52 -24 -15 -24 16 0 18 -3 9 -9 -11 -7 -11
-9 2 -14 17 -7 31 7 22 22 -3 5 0 11 7 14 17 6 96 2 104 -6 3 -4 1 -7 -5 -7
-6 0 -9 -6 -6 -14 4 -10 20 -12 65 -9 46 4 59 2 59 -9 0 -37 -60 -52 -80 -20
-10 15 -11 15 -7 -5 4 -20 0 -22 -76 -28 -57 -5 -82 -4 -85 4 -2 6 -8 11 -13
11 -6 0 -7 -5 -4 -10 8 -13 -20 -24 -36 -14 -9 5 -7 10 7 15 17 7 17 8 2 8
-10 1 -18 8 -18 16 0 10 -10 15 -30 15 -16 0 -30 -5 -30 -11 0 -6 8 -9 18 -7
10 2 22 -6 30 -20 15 -31 15 -30 -5 -35 -10 -2 -8 -3 5 -2 13 1 29 -3 36 -10
7 -7 19 -15 27 -18 8 -2 2 -3 -13 -1 -16 2 -28 -1 -28 -6 0 -6 7 -10 15 -10
12 0 14 -7 9 -26 -4 -15 -1 -36 7 -51 11 -21 11 -27 2 -30 -22 -8 -14 -30 10
-28 20 2 22 6 19 59 -1 37 2 56 9 56 8 0 10 14 6 40 -4 33 -2 40 12 40 9 0 22
-5 28 -11 8 -8 20 -9 41 -1 27 9 29 9 24 -11 -3 -12 -9 -27 -14 -34 -5 -7 -7
-16 -4 -21 3 -5 -8 -22 -25 -38 -29 -28 -29 -28 -8 -36 22 -8 22 -9 3 -23 -14
-11 -15 -14 -4 -15 11 0 11 -3 2 -12 -16 -16 -15 -48 1 -48 7 0 18 -12 24 -27
11 -28 11 -28 12 10 1 21 -4 47 -9 58 -6 11 -7 19 -1 19 14 0 23 51 11 65 -8
9 -8 15 0 20 5 3 10 15 10 25 0 22 31 80 43 80 5 0 11 -9 14 -20 4 -13 14 -20
32 -21 17 -1 20 -3 8 -6 -16 -4 -17 -13 -5 -63 2 -9 -4 -15 -14 -15 -9 0 -20
-4 -24 -8 -4 -4 0 -7 9 -7 9 0 17 -6 17 -14 0 -7 7 -19 15 -26 11 -9 12 -16 5
-25 -8 -10 -9 -39 -1 -87 0 -4 8 -5 16 -2 11 5 15 -1 15 -21 0 -18 -6 -29 -20
-32 -20 -5 -28 -23 -10 -23 6 0 9 -3 9 -7 -4 -25 2 -33 19 -25 9 5 32 7 50 5
29 -5 33 -9 28 -27 -3 -11 -6 -24 -6 -28 0 -4 -10 -8 -21 -10 -12 -2 -27 -11
-33 -21 -9 -14 -7 -21 10 -35 14 -10 24 -32 26 -54 4 -34 2 -38 -20 -38 -14 0
-21 -4 -17 -11 4 -6 9 -8 12 -5 3 3 16 -8 30 -25 22 -25 29 -28 63 -23 23 4
40 2 44 -5 5 -7 -9 -11 -42 -11 l-50 0 -3 -42 c-2 -24 -1 -63 2 -88 l6 -45 2
45 c1 38 3 42 13 26 10 -18 11 -18 24 5 7 13 13 18 14 12 0 -7 7 -13 16 -13
23 0 16 -84 -9 -88 -10 -2 -20 5 -25 19 -7 19 -10 20 -15 6 -4 -10 -14 -17
-24 -17 -17 -1 -17 -1 -1 -11 10 -5 15 -16 12 -24 -7 -17 -8 -16 58 -21 26 -2
50 1 53 6 4 6 35 10 70 10 88 0 95 19 8 22 l-68 2 58 3 c33 2 55 8 52 14 -4 5
-15 9 -26 9 -16 0 -19 7 -19 44 0 38 3 43 19 39 12 -3 20 2 24 16 4 16 -1 21
-22 24 l-26 4 27 2 c21 1 26 5 21 18 -4 10 -2 14 5 9 6 -3 13 -2 16 3 8 13
-21 18 -86 15 -61 -4 -81 12 -29 22 18 4 31 14 35 27 4 18 8 19 18 9 10 -10
10 -15 -2 -22 -12 -8 -10 -10 8 -10 14 0 21 4 17 10 -4 6 -1 17 5 25 16 20 -9
29 -55 22 -19 -3 -35 -2 -35 3 0 5 10 10 23 12 12 2 21 7 20 12 -3 11 -54 13
-71 2 -7 -4 -16 -4 -22 -1 -5 3 -7 0 -4 -9 3 -8 13 -17 22 -19 10 -3 -10 -5
-43 -5 -33 0 -53 2 -45 4 9 3 21 18 29 34 11 26 18 30 54 30 22 0 37 3 34 6
-8 8 11 44 22 44 5 0 7 -10 4 -22 -4 -20 -3 -20 6 -6 24 36 4 48 -80 48 -73 0
-79 2 -79 20 0 11 7 23 15 26 8 4 15 12 15 20 0 8 7 14 15 14 8 0 15 5 15 11
0 5 -6 7 -12 3 -8 -4 -10 -3 -5 2 9 10 12 11 60 14 l32 2 -30 9 c-16 5 -38 6
-47 3 -15 -4 -18 1 -18 37 0 36 2 40 15 29 8 -7 15 -9 16 -4 1 5 5 -2 9 -16
l8 -25 1 26 c1 18 6 26 17 25 9 0 19 5 21 12 3 6 -3 12 -13 12 -15 0 -14 3 4
19 12 10 22 21 22 25 0 3 -28 6 -61 6 -54 0 -60 2 -49 15 7 8 20 14 29 13 8
-2 16 4 16 12 0 8 9 15 19 15 11 0 21 5 23 12 3 8 -11 13 -39 15 l-43 3 45 11
45 10 -41 7 c-30 5 -44 13 -52 32 -10 21 -8 28 14 50 l25 25 -71 0 c-61 0 -70
2 -70 18 0 29 33 52 76 54 38 1 37 1 -11 8 -49 7 -50 7 -10 9 54 2 78 17 42
26 -15 4 -37 5 -50 1 -21 -5 -23 -3 -19 22 3 25 7 28 38 26 19 -2 34 0 35 4 0
4 2 19 4 35 3 24 1 27 -27 27 -23 0 -29 4 -24 16 3 9 6 18 6 20 0 2 9 4 20 4
11 0 20 5 20 10 0 6 -17 10 -37 11 -34 0 -36 1 -15 10 13 5 28 7 32 4 5 -3 11
-1 15 5 3 6 -4 11 -17 11 -39 2 -52 -2 -66 -22 -30 -44 -48 -14 -51 89 -1 28
2 32 24 32 14 0 25 -5 25 -11 0 -6 7 -3 16 5 8 9 21 16 27 16 28 0 -15 24 -50
27 -21 2 -44 4 -50 5 -37 4 10 38 54 39 l38 2 -35 7 c-31 6 -25 15 7 11 6 -1
14 3 18 9 4 6 -10 10 -38 10 -42 0 -44 2 -41 26 3 32 4 33 41 36 20 1 29 6 26
15 -3 7 0 13 6 13 6 0 11 5 11 10 0 6 -21 10 -47 10 -25 0 -43 3 -39 7 4 4 15
8 24 8 9 0 16 6 15 13 -2 6 6 12 17 12 37 0 20 20 -17 21 -21 1 -30 3 -20 6 9
2 17 11 17 20 0 14 -3 13 -25 -1 -34 -22 -65 -21 -65 3 0 16 5 18 31 14 23 -3
30 -1 27 9 -3 7 4 22 14 33 10 11 15 21 11 22 -4 1 -25 4 -45 8 -29 4 -38 11
-38 25 0 16 7 20 33 20 23 0 34 5 34 14 0 16 -42 30 -57 21 -6 -4 -10 5 -10
19 0 20 5 25 32 28 24 2 32 8 33 26 1 17 -4 22 -22 22 -18 0 -22 5 -19 23 2
13 9 21 19 19 8 -1 18 2 22 8 4 6 -5 10 -20 10 -16 0 -24 4 -20 11 4 6 -2 13
-14 16 -25 6 -27 16 -6 33 25 21 7 30 -50 25 -30 -3 -57 0 -60 5 -4 6 -11 8
-16 5 -5 -4 -9 -2 -9 3 0 15 27 22 80 22 27 0 52 5 55 10 4 6 -6 10 -22 10
-24 1 -25 2 -10 11 24 14 21 29 -5 30 -22 0 -22 1 2 10 25 10 25 11 5 25 -11
8 -19 22 -17 30 4 20 -15 18 -27 -3 -10 -17 -10 -16 -11 2 0 38 21 94 38 99
14 5 17 18 17 71 0 45 -4 68 -14 74 -11 7 -10 13 5 36 17 26 17 28 0 41 -17
12 -17 13 3 31 27 23 28 47 1 38 -28 -9 -25 2 8 30 22 20 24 26 13 34 -10 6
-22 6 -33 0 -26 -14 -23 6 5 26 l22 17 -25 -7 c-25 -8 -25 -8 -6 14 11 11 15
21 9 21 -17 0 -43 -36 -44 -61 -1 -13 -5 -5 -10 20 -9 45 -4 66 9 44 5 -8 16
-3 35 13 16 13 24 24 20 24 -5 0 -14 -5 -21 -12 -19 -19 -27 0 -9 20 10 10 17
26 17 35 0 9 5 17 10 17 17 0 11 21 -12 41 -21 17 -21 18 -4 19 13 0 17 5 13
20 -3 11 -1 20 4 20 5 0 9 16 9 35 0 29 -4 36 -25 41 -14 3 -29 12 -33 18 -9
14 -62 56 -71 56 -4 0 -15 -6 -25 -13z"/>
<path d="M3261 5689 c-31 -19 -32 -21 -17 -38 9 -10 16 -22 16 -27 -1 -5 -9 2
-20 14 -18 22 -22 23 -50 10 -30 -13 -42 -48 -17 -48 9 0 9 -2 -1 -9 -16 -10
-6 -81 12 -81 6 0 3 -7 -6 -14 -29 -22 -20 -43 15 -37 4 0 7 -3 7 -9 0 -6 -6
-10 -12 -10 -7 0 3 -15 22 -33 66 -61 81 -87 74 -124 -4 -21 -2 -33 5 -33 6 0
11 5 11 10 0 6 37 11 88 12 l87 1 -82 6 c-78 6 -124 20 -72 22 22 0 22 1 4 8
-35 14 41 18 415 20 195 1 357 4 359 7 2 2 -179 4 -403 4 -346 0 -407 2 -412
15 -8 21 3 34 26 28 11 -3 17 -10 14 -15 -4 -6 2 -5 14 1 11 6 35 11 52 11 18
0 29 4 25 10 -3 6 -15 10 -25 10 -10 0 -22 4 -25 10 -3 6 1 7 10 4 10 -4 6 11
-16 52 -27 50 -58 140 -59 167 0 4 8 7 18 7 33 0 16 69 -18 70 -3 0 -20 -9
-39 -21z"/>
<path d="M4534 5690 c-4 -14 -7 -33 -5 -42 1 -10 -2 -18 -7 -18 -10 0 -10 -50
1 -67 5 -7 0 -16 -13 -23 -23 -12 -27 -38 -7 -46 7 -2 13 -20 13 -39 0 -19 -6
-37 -13 -39 -24 -10 -13 -26 18 -26 36 0 72 -17 64 -31 -4 -5 -18 -9 -33 -9
-24 -1 -25 -2 -9 -11 10 -6 25 -8 33 -5 9 3 14 -1 14 -12 0 -14 2 -14 9 -3 5
8 26 17 47 21 l39 8 -42 1 c-35 1 -43 4 -43 20 0 20 -20 45 -42 54 -10 4 -10
8 1 15 12 8 12 14 3 25 -10 12 -7 18 15 32 l27 18 -28 22 c-18 14 -24 25 -17
29 13 9 15 63 1 71 -5 3 -7 11 -4 18 3 8 1 24 -4 37 l-9 25 -9 -25z"/>
<path d="M4925 5677 c-4 -20 -10 -37 -14 -37 -10 0 -7 -52 3 -68 5 -8 -1 -20
-16 -32 l-23 -20 24 -20 c18 -16 21 -23 12 -34 -9 -11 -9 -16 -1 -21 8 -5 4
-14 -10 -27 -12 -11 -19 -22 -17 -24 9 -9 99 -9 104 0 4 5 -4 18 -17 28 -20
16 -21 21 -10 28 11 7 12 12 3 21 -8 8 -6 16 9 31 20 20 20 20 0 40 -17 17
-18 25 -9 56 9 27 9 36 -1 40 -7 2 -12 13 -12 25 0 12 -4 28 -9 36 -7 11 -11
5 -16 -22z"/>
<path d="M3526 5685 c-3 -9 -6 -25 -6 -36 0 -10 -4 -19 -9 -19 -12 0 -11 -59
1 -66 5 -4 -1 -17 -14 -31 l-23 -24 25 -19 c19 -14 22 -21 12 -32 -8 -10 -8
-18 -1 -25 8 -8 5 -14 -10 -22 -37 -20 -23 -31 34 -29 59 3 68 11 34 28 -15 8
-17 15 -10 24 7 9 7 16 -2 25 -9 10 -8 15 6 25 21 16 22 42 2 53 -12 7 -13 16
-4 48 8 29 8 40 0 43 -6 2 -11 13 -11 25 0 12 -4 28 -9 35 -7 11 -10 10 -15
-3z"/>
<path d="M3919 5685 c-1 -11 -2 -28 -1 -37 1 -10 -2 -18 -7 -18 -12 0 -11 -59
0 -66 5 -2 -1 -14 -13 -26 -21 -21 -21 -21 -2 -37 26 -21 25 -71 -1 -93 -19
-17 -18 -17 38 -18 56 0 79 16 37 27 -22 6 -26 18 -10 28 8 5 7 12 -2 22 -10
12 -9 17 5 24 21 12 22 45 2 56 -12 7 -13 16 -5 43 8 27 7 36 -5 42 -8 5 -12
14 -9 21 2 7 -2 21 -10 32 -15 20 -15 20 -17 0z"/>
<path d="M4119 5685 c-1 -11 -2 -28 -1 -37 1 -10 -2 -18 -7 -18 -12 0 -11 -59
1 -66 5 -4 -1 -17 -14 -31 l-23 -25 21 -16 c22 -19 27 -73 7 -80 -31 -10 -9
-22 40 -22 l52 0 -25 20 c-21 16 -22 22 -11 29 12 7 12 13 3 24 -10 11 -9 17
3 27 21 18 19 37 -7 51 -14 8 -18 14 -10 17 15 5 16 72 1 72 -6 0 -8 8 -5 18
4 10 -1 27 -9 38 -14 19 -14 19 -16 -1z"/>
<path d="M4721 5682 c-6 -11 -8 -28 -5 -36 3 -9 1 -16 -5 -16 -13 0 -11 -50 2
-67 6 -9 4 -15 -6 -19 -25 -9 -28 -33 -6 -53 14 -13 17 -21 9 -26 -8 -5 -8
-11 0 -20 7 -9 6 -16 -5 -25 -26 -22 -17 -30 35 -30 37 0 50 4 50 14 0 8 -9
18 -21 21 -15 5 -17 10 -9 20 8 9 8 15 0 20 -16 10 -12 22 9 28 23 6 19 42 -6
51 -9 4 -12 13 -8 25 13 42 13 60 -1 65 -7 3 -11 12 -8 20 3 8 1 23 -4 32 -9
16 -10 15 -21 -4z"/>
<path d="M5126 5685 c-3 -9 -6 -25 -6 -36 0 -10 -3 -19 -7 -19 -10 0 -9 -52 0
-67 4 -6 0 -16 -8 -23 -18 -15 -19 -39 -2 -46 7 -2 13 -20 13 -39 0 -19 -6
-37 -13 -39 -7 -3 -13 -12 -13 -19 0 -11 11 -13 48 -9 59 6 62 9 33 31 -16 13
-20 20 -12 25 9 6 9 11 1 21 -9 10 -6 19 11 36 l22 22 -22 18 c-14 12 -20 23
-15 31 11 18 13 58 2 58 -4 0 -8 10 -8 23 0 12 -4 28 -9 35 -7 11 -10 10 -15
-3z"/>
<path d="M3725 5670 c-3 -11 -3 -24 0 -30 3 -5 1 -10 -6 -10 -8 0 -10 -14 -7
-44 4 -32 2 -46 -8 -50 -18 -7 -18 -30 0 -45 18 -15 15 -64 -7 -85 -9 -10 -17
-18 -17 -19 0 -1 25 0 55 1 56 4 71 16 34 27 -16 5 -18 10 -8 21 8 10 8 18 1
27 -9 10 -6 17 8 30 24 20 25 36 5 43 -12 5 -14 15 -9 40 4 20 2 40 -5 48 -7
8 -11 18 -10 22 7 40 -15 60 -26 24z"/>
<path d="M9716 5565 c-26 -44 -185 -344 -295 -555 -53 -102 -106 -198 -116
-215 -13 -19 -22 -56 -27 -110 -15 -164 -26 -261 -36 -305 -6 -25 -13 -96 -17
-158 -4 -62 -11 -114 -16 -117 -4 -3 -8 -39 -8 -80 0 -41 -5 -83 -10 -94 -15
-27 -14 -41 4 -41 21 0 32 27 40 99 4 35 11 78 16 95 5 17 14 80 20 141 5 60
14 126 20 145 5 19 14 112 21 205 11 166 12 172 49 250 70 145 186 357 201
363 4 2 12 19 18 38 10 31 35 77 73 138 7 11 22 31 35 45 12 14 22 35 22 47 0
12 7 38 16 59 8 20 14 47 12 59 -4 19 -5 19 -22 -9z"/>
<path d="M4350 5470 c0 -7 -7 -10 -15 -6 -8 3 -21 -2 -30 -10 -9 -9 -23 -13
-35 -9 -24 7 -26 -7 -5 -25 8 -7 15 -17 15 -22 0 -15 -44 -27 -58 -15 -16 13
-29 0 -15 -14 6 -6 9 -18 6 -25 -5 -14 13 -18 71 -14 20 1 27 -2 24 -12 -3 -7
-16 -13 -29 -13 -18 0 -24 -5 -23 -22 1 -14 -3 -20 -12 -16 -8 3 -14 9 -14 14
0 5 -10 9 -22 9 -22 -1 -23 -1 -4 -15 12 -9 14 -15 7 -15 -7 0 -21 -10 -32
-22 -20 -25 -25 -58 -8 -58 5 0 8 4 4 9 -8 14 8 21 62 26 55 6 84 25 38 25
l-30 0 35 22 c42 26 59 28 83 8 17 -13 20 -13 33 5 12 17 12 20 -1 28 -8 4
-19 6 -24 2 -5 -3 -13 0 -17 6 -3 6 0 15 7 20 21 12 4 22 -43 23 -24 0 -44 5
-45 11 -2 5 19 9 47 7 27 -1 52 3 55 8 4 6 11 8 16 5 5 -3 6 1 3 9 -3 9 -15
16 -25 16 -10 0 -19 5 -19 11 0 6 8 8 19 4 12 -4 21 0 25 11 5 13 2 15 -13 11
-13 -3 -18 -1 -15 8 3 7 1 16 -5 20 -6 3 -11 1 -11 -5z"/>
<path d="M3170 5288 c0 -7 7 -22 15 -32 8 -11 15 -29 15 -40 -1 -21 -1 -21
-15 -2 -15 19 -15 19 -15 -2 0 -13 7 -33 16 -46 11 -17 12 -26 4 -31 -13 -8
-4 -83 13 -103 9 -11 13 -11 23 3 10 14 15 14 33 4 15 -10 17 -16 9 -26 -12
-15 -6 -17 63 -13 50 2 63 -7 48 -30 -6 -10 -9 -11 -9 -2 0 7 -8 4 -20 -8 -14
-14 -33 -20 -65 -20 -38 0 -49 5 -80 37 -35 36 -35 36 -35 11 0 -14 -6 -40
-14 -58 -22 -54 2 -94 34 -55 10 12 9 15 -6 15 -15 0 -16 2 -5 9 11 7 11 9 0
14 -11 3 -11 7 -2 17 16 17 40 -2 45 -33 2 -12 12 -23 25 -27 17 -4 20 -9 13
-20 -8 -12 -11 -13 -19 -1 -6 10 -12 6 -24 -18 -12 -25 -13 -31 -2 -31 7 0 15
-6 17 -12 4 -10 8 -9 20 2 8 8 13 20 11 26 -5 16 28 27 41 14 15 -15 46 -12
46 4 0 8 -4 18 -10 21 -16 10 -12 35 4 29 8 -3 12 -12 10 -19 -6 -15 7 -25 54
-41 31 -11 32 -11 27 10 -6 21 -6 21 9 2 9 -11 16 -27 16 -35 0 -12 -2 -13 -8
-3 -7 10 -14 8 -33 -7 -15 -12 -40 -19 -64 -19 -22 0 -34 3 -27 5 20 8 14 22
-8 16 -11 -3 -20 -9 -20 -14 0 -5 -21 -9 -46 -9 -27 0 -43 4 -39 10 4 6 -5 10
-20 10 -16 0 -25 5 -23 13 2 6 -2 14 -7 17 -6 3 -11 -5 -13 -17 -2 -14 2 -23
10 -23 9 0 10 -3 2 -8 -14 -9 -28 -52 -17 -53 11 -2 216 -10 228 -9 27 1 128
17 118 19 -20 2 -15 22 7 28 27 7 16 22 -13 17 -12 -2 -16 -2 -9 2 6 3 12 23
12 45 0 21 4 39 9 39 12 0 9 100 -3 101 -6 1 -17 1 -23 0 -7 -1 -13 7 -13 19
0 12 7 20 18 21 13 0 14 2 2 6 -8 3 -18 11 -22 17 -5 8 -11 7 -20 -2 -18 -18
-134 -16 -142 3 -4 12 5 15 52 16 41 0 51 3 37 9 -19 8 -19 9 3 9 12 1 22 -3
22 -9 0 -5 16 -10 36 -10 21 0 33 4 29 10 -4 6 6 10 22 11 24 0 25 2 8 8 -23
9 -57 3 -50 -10 3 -4 -4 -7 -15 -6 -21 1 -27 13 -10 19 6 2 -15 3 -45 3 -40 0
-54 -3 -50 -12 7 -21 -6 -15 -35 16 -20 20 -28 39 -28 65 0 20 4 36 10 36 5 0
6 5 3 10 -11 17 -25 11 -25 -11 0 -12 -5 -19 -12 -16 -16 5 -19 74 -5 101 7
15 6 18 -6 13 -8 -3 -23 1 -34 8 -23 18 -33 19 -33 3z"/>
<path d="M4342 5153 c-10 -4 -9 -10 4 -30 9 -15 11 -22 3 -18 -9 6 -11 2 -7
-13 7 -24 -6 -39 -17 -21 -4 5 -7 26 -7 45 0 35 -14 47 -20 17 -3 -15 -4 -15
-21 1 -10 10 -21 15 -25 12 -3 -4 -1 -10 5 -14 17 -11 21 -74 6 -79 -7 -3 -13
3 -13 13 0 9 -3 14 -7 10 -9 -9 -10 -14 -12 -61 -1 -27 -4 -33 -17 -28 -14 5
-15 3 -5 -15 15 -28 24 -33 41 -21 8 5 11 9 6 9 -6 0 -1 7 10 15 19 14 18 14
-3 15 -13 0 -23 6 -23 14 0 10 15 17 48 20 26 4 64 10 84 15 21 4 35 4 32 0
-3 -5 0 -9 5 -9 6 0 11 -8 12 -17 0 -10 5 -4 10 12 10 35 3 68 -13 59 -7 -5
-9 2 -4 20 3 14 2 26 -3 26 -5 0 -12 -8 -14 -17 -3 -12 -7 -8 -12 15 -7 31
-16 36 -43 25z"/>
<path d="M4090 5100 c0 -19 -5 -30 -14 -30 -10 0 -13 -8 -10 -25 4 -25 3 -25
-46 -21 -50 5 -72 -6 -51 -27 13 -13 -13 -47 -36 -47 -7 0 -13 -8 -13 -17 0
-13 3 -14 8 -6 5 8 12 3 19 -17 7 -18 7 -32 2 -36 -5 -3 -9 -26 -9 -52 1 -39
3 -44 13 -31 7 9 17 14 23 12 7 -2 15 9 19 24 7 25 8 26 15 8 4 -11 4 -27 -1
-36 -5 -9 -5 -20 -1 -24 4 -4 -5 -5 -20 -1 -14 3 -36 2 -49 -2 -22 -9 -22 -9
-2 -23 11 -8 21 -18 21 -24 1 -5 13 -11 27 -13 28 -4 34 -22 8 -23 -15 0 -15
-2 2 -9 14 -6 2 -9 -42 -9 -36 -1 -63 3 -63 9 0 6 -17 9 -37 9 l-38 -2 35 -7
35 -7 -42 -2 c-25 0 -43 4 -46 12 -3 9 -7 9 -20 -2 -9 -7 -26 -11 -37 -8 -11
3 -20 1 -20 -4 0 -14 58 -11 63 4 3 6 6 2 6 -11 1 -18 4 -21 19 -14 20 11 178
10 188 -1 4 -4 7 -38 8 -76 1 -38 4 -73 9 -77 6 -6 12 26 8 49 -3 16 20 47 36
47 11 0 14 -6 9 -22 -3 -13 -6 -30 -7 -38 0 -10 -3 -8 -9 5 -8 19 -9 19 -9 -2
-1 -14 5 -23 14 -23 10 0 15 -10 15 -30 0 -20 -5 -30 -15 -30 -8 0 -15 -5 -15
-11 0 -5 5 -7 10 -4 6 4 17 2 25 -5 19 -15 31 6 14 26 -10 12 -10 22 0 49 15
41 12 103 -5 132 -12 18 -10 26 10 55 19 29 21 36 8 47 -12 11 -12 15 0 22 10
7 9 9 -6 9 -12 0 -16 -5 -12 -15 4 -10 -1 -15 -15 -15 -19 0 -19 1 -4 16 8 9
14 24 11 33 -5 15 -10 122 -7 149 0 6 13 12 27 12 19 0 25 -4 20 -15 -3 -8 -1
-15 4 -15 5 0 7 -7 4 -15 -4 -9 0 -15 8 -15 10 0 12 -11 10 -41 -3 -29 -1 -40
7 -35 14 9 14 79 0 93 -8 8 -8 13 0 17 6 4 11 16 11 27 0 10 7 19 15 19 26 0
16 20 -12 26 -34 7 -80 43 -67 52 13 10 18 82 5 82 -6 0 -11 -13 -11 -30z"/>
<path d="M3785 5080 c-7 -21 -10 -22 -65 -22 l-35 1 38 -11 c20 -5 37 -16 37
-23 0 -7 5 -15 11 -17 14 -5 21 -76 8 -84 -5 -3 -7 -9 -5 -13 3 -4 1 -13 -5
-21 -7 -12 -9 -10 -9 8 0 12 -4 22 -10 22 -5 0 -10 -3 -9 -7 2 -16 -14 -52
-25 -56 -6 -2 0 -2 12 0 17 3 21 0 16 -8 -5 -9 -1 -10 14 -7 19 5 22 2 22 -29
0 -24 -4 -34 -13 -30 -6 2 -18 -2 -25 -9 -10 -12 -10 -14 3 -15 30 -3 34 -4
47 -16 9 -10 7 -13 -13 -13 -24 0 -23 0 5 -15 16 -9 43 -14 61 -13 26 2 31 5
27 21 -3 12 2 25 12 33 11 8 13 14 7 19 -6 3 -11 20 -11 38 0 24 3 28 12 19
20 -20 32 -13 13 8 -15 16 -16 25 -8 43 6 13 8 30 3 37 -6 10 -9 9 -12 -1 -3
-8 -10 3 -17 23 -7 21 -10 46 -6 57 6 20 -9 38 -19 23 -3 -5 -15 -8 -28 -6
-13 1 -27 3 -33 3 -5 1 -1 8 9 16 11 8 16 15 10 16 -5 0 0 4 11 9 19 8 19 9
-2 9 -16 1 -21 6 -17 16 4 8 4 15 1 15 -3 0 -9 -9 -12 -20z"/>
<path d="M3623 5052 c15 -9 26 -21 24 -27 -6 -18 -68 -18 -88 1 -11 9 -22 14
-26 11 -4 -4 2 -13 12 -21 14 -10 17 -22 13 -65 -3 -29 -13 -60 -23 -71 -16
-18 -16 -20 -2 -20 12 0 17 -9 17 -29 0 -16 3 -43 6 -61 7 -30 9 -31 41 -25
20 3 47 11 62 16 23 9 24 11 9 20 -19 11 -25 39 -8 39 5 0 7 -7 4 -15 -7 -17
4 -19 24 -6 10 6 7 13 -15 29 -16 11 -24 24 -19 29 5 4 11 2 13 -4 8 -22 23
-14 23 13 0 14 4 23 10 19 11 -7 13 6 4 29 -7 18 -34 10 -34 -10 0 -8 -4 -14
-10 -14 -5 0 -10 9 -10 19 0 11 -3 26 -6 35 -5 12 0 16 20 16 17 0 26 5 26 16
0 9 6 14 13 11 6 -2 21 -1 32 4 16 6 13 8 -15 9 -19 1 -29 4 -22 7 20 8 14 23
-10 23 -12 0 -18 3 -15 7 11 10 -26 32 -53 32 l-25 0 28 -17z"/>
<path d="M4521 5010 c-12 -11 -27 -17 -32 -14 -5 3 -9 -2 -9 -11 0 -11 5 -15
16 -11 11 4 14 1 9 -12 -4 -13 2 -23 17 -31 13 -6 16 -10 6 -7 -17 5 -28 -18
-21 -41 6 -18 32 -16 39 2 4 8 13 15 21 15 9 0 11 5 7 12 -5 7 -10 30 -12 51
-3 33 -1 38 15 35 11 -2 17 -11 15 -21 -2 -9 1 -17 6 -17 4 0 8 -36 8 -81 -1
-44 2 -83 7 -86 4 -2 7 4 7 14 0 11 5 24 12 31 9 9 9 18 0 37 -15 34 -15 36 4
28 14 -5 16 -1 12 20 -5 26 -3 28 34 31 7 1 12 -18 13 -49 2 -27 10 -66 19
-85 l16 -35 -3 50 c-1 28 -6 49 -12 48 -5 -1 -10 9 -10 22 0 18 3 21 13 12 11
-8 12 -5 6 19 -9 41 -33 59 -50 36 -12 -15 -13 -14 -14 13 0 22 -5 31 -17 32
-10 1 -36 4 -58 7 -32 5 -45 2 -64 -14z"/>
<path d="M4853 4955 c-7 -7 -10 -28 -8 -47 17 -117 17 -128 1 -134 -24 -9 -26
-4 -27 65 -1 51 -3 60 -15 50 -8 -6 -14 -18 -14 -25 0 -8 -6 -14 -12 -14 -9 0
-10 -3 -2 -8 6 -4 14 -23 17 -42 3 -19 3 -29 0 -23 -3 8 -14 11 -29 7 -13 -4
-38 -1 -55 6 -32 14 -53 5 -29 -11 10 -6 2 -8 -29 -5 -24 3 -51 12 -61 21 -21
19 -36 20 -20 0 10 -12 9 -15 -5 -15 -12 0 -15 -5 -11 -16 3 -9 6 -18 6 -20 0
-2 7 -4 15 -4 16 0 20 -12 8 -23 -3 -4 -12 -2 -20 4 -9 9 -13 8 -13 0 0 -6 5
-11 10 -11 20 0 32 -52 20 -81 -13 -29 -5 -73 11 -64 5 4 9 24 9 46 0 27 4 39
14 39 8 0 16 6 18 12 3 7 7 3 10 -9 3 -11 2 -27 -3 -34 -6 -10 -9 -11 -9 -1 0
6 -4 12 -10 12 -14 0 -8 -23 10 -36 12 -10 15 -23 19 -81 1 -7 5 -13 10 -13 5
0 8 30 7 67 0 44 4 68 12 71 13 4 16 -18 13 -98 0 -25 2 -38 7 -30 4 8 13 15
20 16 6 1 21 2 31 3 10 0 21 7 24 15 4 11 -2 12 -28 6 -32 -7 -33 -6 -25 14 5
14 3 31 -6 46 -26 48 -21 52 76 48 56 -2 90 1 90 7 0 6 -42 10 -107 10 -73 0
-108 4 -110 12 -2 7 -11 9 -19 6 -8 -3 -14 0 -14 6 0 6 -8 11 -17 12 -10 1 2
6 27 12 33 8 39 12 23 15 -50 8 -18 17 60 16 57 0 81 -4 80 -12 -2 -8 11 -12
34 -12 20 0 34 3 30 6 -3 4 4 15 16 25 12 10 17 18 11 19 -7 0 -8 17 -4 50 5
38 3 51 -8 55 -11 4 -12 9 -3 19 8 9 8 21 1 40 -11 30 -11 30 -27 11z"/>
<path d="M3123 4674 c-3 -8 -3 -23 0 -34 3 -11 1 -20 -5 -20 -5 0 -7 -4 -3 -9
3 -5 -3 -12 -14 -16 -12 -3 -19 -14 -18 -25 2 -24 17 -27 17 -3 0 15 1 15 13
1 6 -9 19 -18 27 -21 8 -3 -7 -6 -34 -6 -38 -1 -46 -4 -38 -13 6 -7 11 -17 11
-23 0 -11 81 -25 81 -14 0 13 33 20 41 7 6 -9 11 -8 25 3 14 11 18 11 22 1 2
-8 8 -10 15 -4 19 15 66 20 70 8 2 -6 6 0 9 12 5 18 2 22 -15 23 -20 1 -20 2
3 9 14 4 19 8 13 9 -26 2 -12 21 16 21 20 0 30 -6 34 -20 4 -15 0 -20 -14 -20
-20 0 -26 -15 -10 -24 5 -4 12 0 14 6 3 8 6 6 6 -4 1 -21 12 -23 29 -6 9 9 15
9 23 1 12 -12 52 -5 43 8 -3 5 -20 9 -37 9 -26 0 -33 4 -33 20 0 16 7 20 30
20 71 0 -18 27 -96 29 -15 1 -15 5 -6 32 7 20 14 27 20 21 12 -12 198 -4 212
9 6 5 -36 9 -100 9 -74 0 -104 3 -94 10 11 7 2 10 -32 10 -27 0 -48 -4 -48 -9
0 -9 -61 -7 -143 4 -18 2 -30 -2 -34 -11z"/>
<path d="M4282 4533 c3 -59 5 -68 21 -65 30 5 86 -18 92 -39 4 -10 9 -19 13
-19 35 1 55 77 27 100 -15 12 -19 12 -30 -3 -22 -30 -28 -19 -21 38 l6 55 -55
0 -56 0 3 -67z"/>
<path d="M4735 4450 c-16 -11 -25 -20 -18 -20 7 0 10 -7 7 -15 -4 -8 -1 -15 5
-15 6 0 11 -9 11 -20 0 -17 -5 -19 -32 -16 -18 3 -44 9 -58 14 -14 5 -31 7
-39 4 -7 -2 -17 2 -22 9 -7 12 -9 12 -9 1 0 -8 10 -27 21 -44 14 -20 18 -32
11 -37 -14 -9 -23 -89 -10 -97 6 -4 5 -10 -3 -15 -9 -5 -9 -9 -3 -9 7 0 14 -9
17 -21 7 -25 33 -20 29 6 -2 10 1 14 7 10 6 -3 11 -1 11 4 0 6 -4 11 -10 11
-15 0 -12 40 3 41 6 1 21 0 33 0 18 -2 20 2 16 30 -3 21 -7 27 -13 18 -4 -7
-5 -17 -3 -21 3 -4 -9 -8 -25 -8 -17 0 -31 5 -31 10 0 6 5 9 11 8 6 -2 13 2
16 9 3 7 -3 9 -16 6 -24 -6 -26 2 -6 37 13 22 14 23 15 5 0 -17 2 -17 10 -5 9
13 11 13 20 0 6 -10 10 -11 10 -2 0 6 7 12 15 12 8 0 15 -5 15 -11 0 -8 4 -8
13 -1 7 6 41 10 74 9 34 -1 59 1 57 5 -2 3 8 9 23 11 26 4 26 4 -4 6 -24 1
-33 6 -34 19 0 10 -3 12 -6 5 -3 -8 -23 -13 -47 -13 -39 0 -43 2 -41 23 1 12
4 22 5 22 1 0 4 12 6 28 1 15 2 27 1 27 -1 0 -15 -9 -32 -20z"/>
<path d="M3100 4453 c0 -7 -7 -13 -16 -13 -14 0 -14 -3 -4 -15 7 -8 22 -15 34
-15 24 -1 56 -22 56 -39 0 -7 -19 -11 -49 -11 -73 0 -80 -5 -71 -46 4 -19 4
-34 -1 -34 -16 0 -9 -18 9 -23 9 -3 -2 -5 -26 -6 -39 -1 -41 -2 -30 -21 9 -13
15 -16 20 -7 5 8 9 7 13 -5 4 -9 13 -14 20 -12 7 3 16 1 20 -5 4 -7 -11 -11
-44 -11 -28 0 -51 -4 -51 -9 0 -6 11 -22 25 -37 14 -15 25 -22 25 -15 0 6 9
11 20 11 15 0 20 -7 20 -27 l1 -28 14 33 c13 30 35 44 35 21 0 -5 4 -8 10 -4
5 3 7 11 4 18 -2 7 5 12 21 12 18 0 25 -5 25 -20 1 -20 1 -20 15 -1 12 16 17
17 30 6 13 -11 15 -9 15 10 0 16 4 20 15 16 8 -3 15 -1 15 4 0 6 -9 10 -20 10
-39 0 -14 36 31 44 16 2 30 -3 42 -18 10 -12 16 -15 15 -7 -2 9 8 17 27 21 27
5 26 7 -19 13 -27 4 -62 7 -77 7 -16 0 -29 4 -29 9 0 5 -8 12 -17 14 -14 4
-12 5 5 6 34 2 26 19 -10 24 -29 3 -28 4 8 5 29 2 44 7 48 19 6 15 9 14 19 -7
16 -31 34 -36 33 -9 -1 18 5 23 37 25 21 2 35 0 32 -5 -8 -14 27 -19 48 -7 12
8 23 7 37 -1 12 -8 21 -9 25 -3 9 14 -5 51 -16 44 -5 -3 -7 -10 -4 -15 12 -19
-28 -8 -46 13 -16 17 -19 18 -19 5 0 -14 -10 -17 -49 -17 -58 0 -81 7 -81 26
0 8 -6 11 -15 8 -8 -4 -12 -10 -9 -15 5 -9 4 -10 -36 -14 -28 -3 -50 11 -50
31 0 11 17 14 70 14 54 0 72 4 76 15 9 22 63 19 72 -4 5 -13 12 -16 27 -10 14
5 15 8 5 9 -8 1 -4 5 10 9 21 7 16 9 -30 15 -70 10 -156 2 -152 -13 1 -6 -10
-11 -24 -11 -14 0 -23 4 -19 9 8 15 -11 22 -58 23 -23 0 -45 5 -49 12 -6 8 -8
7 -8 -1z"/>
<path d="M7366 4408 c-56 -204 -329 -1009 -439 -1294 -45 -115 -136 -327 -225
-521 -38 -84 -68 -153 -65 -153 12 0 215 452 301 670 81 207 252 691 348 985
53 165 99 306 102 313 2 6 -1 12 -7 12 -7 0 -13 -6 -15 -12z"/>
<path d="M4153 4123 c-4 -10 -12 -22 -19 -28 -19 -15 -29 -81 -14 -90 9 -6 9
-9 -1 -16 -7 -4 -11 -11 -7 -14 8 -8 126 -10 163 -3 17 4 35 7 40 7 13 1 7
121 -6 121 -5 0 -9 -7 -9 -17 0 -15 -1 -15 -18 0 -23 21 -36 21 -52 2 -19 -23
-28 -18 -32 17 -3 37 -34 51 -45 21z"/>
<path d="M4373 4117 c-24 -28 -39 -93 -24 -110 5 -7 10 -16 10 -21 1 -5 13
-10 28 -12 16 -1 44 -4 63 -7 19 -2 40 -1 45 2 6 3 21 6 34 6 24 0 25 2 22 60
-3 65 -7 77 -21 55 -7 -11 -11 -11 -24 -1 -18 15 -51 6 -62 -17 -6 -13 -9 -7
-13 23 -7 48 -28 56 -58 22z"/>
<path d="M7571 4068 c-19 -64 -275 -731 -346 -903 -152 -365 -330 -727 -442
-898 -35 -54 -59 -96 -53 -92 12 7 93 128 132 195 46 80 224 442 283 575 31
72 66 148 76 170 40 88 363 923 375 969 11 44 -12 29 -25 -16z"/>
<path d="M7040 4013 c-33 -159 -184 -664 -315 -1058 -107 -320 -176 -501 -264
-689 -28 -60 -50 -111 -48 -113 7 -7 126 254 190 417 122 311 305 883 431
1348 39 144 41 152 27 152 -5 0 -15 -26 -21 -57z"/>
<path d="M3090 3989 c0 -5 -29 -9 -65 -9 -36 0 -65 -3 -65 -7 1 -20 19 -29 59
-29 l45 -1 -2 -54 c-2 -39 0 -50 7 -39 6 8 11 23 11 33 0 10 7 20 16 24 13 5
13 7 2 14 -10 7 -9 9 5 9 9 0 17 4 17 9 0 15 61 19 75 5 11 -11 15 -11 25 1
14 17 115 22 105 6 -3 -5 -1 -12 4 -15 5 -3 11 1 15 9 8 21 85 21 93 -1 5 -13
7 -13 14 -2 16 24 10 28 -42 28 -27 0 -48 3 -46 8 3 4 -41 7 -98 7 -57 0 -98
-3 -92 -7 7 -4 -3 -8 -21 -8 -18 0 -31 4 -28 9 3 5 -3 11 -14 14 -11 3 -20 1
-20 -4z"/>
<path d="M4647 3943 c-16 -60 -17 -77 -5 -85 9 -5 10 -10 2 -15 -15 -11 -18
-153 -3 -153 7 0 10 15 7 40 -2 22 0 40 4 40 5 0 8 -14 8 -32 0 -45 12 -27 14
22 2 33 -1 40 -16 40 -25 0 -23 15 2 17 11 1 20 -3 20 -8 0 -6 5 -7 11 -3 8 4
8 1 2 -12 -4 -11 -7 -28 -7 -39 4 -51 6 -59 10 -48 3 7 12 9 20 6 9 -3 14 2
14 17 0 11 -4 19 -8 16 -5 -3 -9 8 -10 24 0 20 6 33 19 40 18 10 23 6 20 -12
-2 -12 13 -10 26 3 13 13 47 4 39 -9 -2 -4 10 -8 27 -9 29 -1 29 -1 7 6 -18 5
-21 9 -12 15 21 13 -5 36 -31 27 -25 -9 -99 7 -91 21 3 5 -3 12 -15 15 -12 3
-21 14 -22 27 -1 11 -2 26 -4 31 -1 6 -3 16 -3 23 -3 18 -20 15 -25 -5z"/>
<path d="M4024 3874 l5 -31 -86 -12 c-58 -7 -90 -7 -98 -1 -9 8 -15 6 -19 -6
-4 -10 -1 -21 6 -26 11 -6 10 -8 0 -8 -7 0 -10 -4 -7 -10 10 -16 22 -11 28 11
4 15 11 19 25 14 11 -3 23 -1 27 5 4 6 20 8 41 4 25 -5 34 -3 34 7 0 11 2 11
9 -1 6 -8 8 -17 5 -21 -2 -4 6 -5 17 -2 15 4 20 2 17 -7 -2 -7 -24 -15 -48
-17 -25 -3 -45 -5 -46 -6 -1 -1 4 -28 11 -59 l11 -58 -30 -1 -31 -1 30 -7 c17
-4 33 -3 36 2 3 4 18 6 32 3 18 -3 27 0 27 9 0 7 6 16 13 18 9 4 9 6 0 6 -6 1
-15 -3 -18 -9 -3 -5 -15 -10 -25 -10 -21 0 -34 29 -24 55 6 15 8 15 20 -6 7
-13 13 -18 14 -10 0 8 7 11 20 8 19 -5 20 0 19 82 0 48 -5 94 -11 102 -7 10
-8 5 -4 -17z"/>
<path d="M3116 3835 c-4 -12 -22 -14 -103 -9 -78 4 -95 3 -86 -7 7 -7 24 -14
39 -15 15 -2 31 -9 35 -16 6 -10 -3 -14 -41 -16 -49 -3 -50 -4 -44 -30 9 -36
14 -43 25 -37 5 4 9 -4 10 -17 1 -23 1 -23 9 2 4 14 8 19 9 11 1 -11 4 -11 16
-1 13 10 15 9 15 -11 0 -21 2 -20 17 10 16 31 17 32 30 15 13 -18 15 -18 24
-1 12 21 39 23 39 2 0 -8 5 -15 10 -15 6 0 10 7 10 15 0 20 20 19 36 -2 12
-16 13 -16 14 9 0 21 4 26 16 21 11 -4 15 -2 12 8 -3 9 -20 13 -54 12 -27 -1
-41 1 -32 3 10 3 15 11 11 21 -4 11 0 14 18 12 13 -2 33 2 45 8 21 12 41 12
59 1 6 -3 28 -3 50 1 37 7 34 8 -40 16 -44 4 -83 13 -87 19 -6 8 -8 7 -8 -1 0
-7 -9 -13 -21 -13 -11 0 -17 5 -14 10 3 6 2 10 -3 10 -6 0 -12 -7 -16 -15z"/>
<path d="M4274 3819 c3 -17 6 -57 6 -89 l0 -58 51 0 c29 0 52 5 54 12 2 6 5
46 7 89 l3 77 -64 0 -63 0 6 -31z"/>
<path d="M2957 3532 c-70 -3 -78 -5 -72 -20 4 -9 8 -24 10 -32 3 -8 7 -26 11
-39 7 -22 5 -23 -30 -19 -20 2 -36 0 -36 -4 0 -4 15 -8 34 -8 19 0 38 -4 41
-10 4 -6 -14 -10 -46 -10 -50 0 -51 -1 -36 -18 10 -10 14 -23 10 -27 -5 -5 0
-3 10 5 16 12 20 12 28 -1 7 -12 9 -12 9 0 0 10 7 7 25 -9 21 -20 25 -21 31
-6 8 20 69 22 77 2 8 -20 36 -14 57 14 21 28 64 30 87 2 14 -16 32 -22 77 -24
36 -2 61 -8 64 -15 2 -7 -3 -13 -12 -13 -12 0 -16 -10 -16 -37 1 -35 2 -36 13
-16 7 12 16 21 21 20 5 -1 10 14 10 33 l1 35 -67 3 c-38 2 -68 7 -68 13 0 6
23 9 54 8 31 -1 61 3 69 10 19 15 27 59 13 65 -7 3 -6 8 4 15 12 9 9 11 -15
12 -24 1 -25 3 -7 6 12 2 20 9 17 14 -4 5 12 9 34 9 23 0 41 -4 41 -10 0 -5 7
-10 15 -10 8 0 15 7 15 15 0 10 -11 15 -35 15 -19 0 -35 5 -35 10 0 6 -12 10
-26 10 -14 0 -23 3 -21 8 5 7 -209 10 -356 4z m310 -58 c-5 -32 14 -90 25 -78
4 3 9 1 12 -4 11 -17 -44 -23 -105 -11 -32 6 -79 9 -104 7 -25 -3 -45 -2 -45
3 0 5 7 9 15 9 8 0 15 5 15 10 0 9 -20 13 -37 8 -5 -2 -7 -11 -6 -20 2 -15 -6
-18 -52 -18 -30 0 -55 5 -55 10 0 6 6 10 13 10 7 1 6 5 -5 13 -15 12 -15 14 2
25 11 6 27 9 37 5 15 -6 16 -5 3 9 -8 9 -18 14 -22 12 -4 -2 -9 0 -13 6 -3 5
3 10 14 10 12 0 21 5 21 10 0 23 16 8 18 -17 3 -36 4 -36 54 -25 38 9 40 10
13 12 -16 1 -24 4 -17 7 6 2 10 9 6 14 -3 5 5 9 18 10 13 0 31 2 40 4 19 3 43
-28 54 -71 l8 -29 6 25 c4 14 2 28 -3 31 -4 3 -10 18 -11 32 -3 25 -2 26 52
26 l54 -1 -5 -34z"/>
<path d="M4276 3382 c-15 -3 -17 -10 -12 -40 3 -21 6 -63 6 -95 l0 -58 62 3
c69 3 64 -5 69 116 l4 77 -55 1 c-30 0 -63 -1 -74 -4z"/>
<path d="M2810 3300 c0 -5 5 -12 11 -15 6 -4 8 -12 6 -19 -6 -16 15 -33 36
-30 11 1 22 -7 27 -19 7 -17 9 -18 9 -4 1 24 21 22 21 -3 0 -21 15 -27 25 -10
4 6 11 8 16 5 8 -6 13 11 12 43 -1 7 11 12 28 12 20 0 27 -4 23 -14 -7 -17 12
-30 22 -15 5 8 8 8 14 -1 4 -7 10 7 15 32 4 24 9 37 12 31 6 -17 23 -16 23 0
0 11 -32 14 -150 15 -83 1 -150 -3 -150 -8z"/>
<path d="M1179 3072 c-9 -9 -24 -22 -34 -28 -16 -9 -14 -10 11 -10 l29 1 -4
-110 c-2 -60 -8 -113 -13 -116 -11 -7 -13 -116 -3 -142 4 -10 5 -86 3 -169 -6
-159 -7 -161 -58 -175 -14 -3 -35 -13 -47 -22 -22 -15 -22 -22 -23 -184 l0
-167 35 14 c31 13 35 13 39 -2 3 -10 4 -27 1 -40 -2 -12 1 -22 8 -22 8 0 7 -4
-1 -12 -7 -7 -26 -13 -42 -13 -23 0 -26 3 -19 17 6 11 4 18 -6 22 -10 3 -18
-5 -25 -27 -6 -22 -8 66 -3 276 l6 309 -24 -4 c-22 -3 -24 -8 -26 -68 -1 -36
-4 -96 -8 -135 -4 -38 -8 -141 -11 -229 -2 -99 -8 -163 -15 -172 -7 -8 -34
-15 -68 -16 l-56 -1 65 -6 65 -6 -1 -80 -1 -80 -56 0 c-37 0 -53 -3 -47 -9 17
-17 11 -24 -12 -19 -17 3 -19 2 -9 -5 8 -6 11 -17 6 -32 -9 -29 -18 -18 -24
33 l-6 42 -55 1 c-86 2 -88 3 -108 24 -15 17 -24 19 -44 11 -54 -21 -39 -49
45 -85 50 -20 107 -67 107 -88 0 -14 7 -16 35 -11 31 5 35 3 35 -16 0 -12 -6
-21 -16 -21 -9 0 -12 5 -8 12 5 7 3 8 -5 4 -13 -8 -372 165 -633 305 -81 44
-149 79 -152 79 -4 0 -5 -185 -4 -411 l3 -412 65 -24 c81 -30 99 -46 83 -72
-8 -13 -9 -21 -1 -29 12 -12 13 -266 2 -283 -3 -5 4 -9 15 -9 19 0 20 6 21
118 0 64 3 129 7 143 l8 26 105 -39 c150 -55 150 -55 150 -78 0 -11 5 -20 10
-20 6 0 10 -24 10 -54 0 -44 -4 -55 -17 -59 -17 -4 -17 -5 0 -6 16 -1 17 -10
14 -88 -5 -97 -6 -99 -82 -79 l-30 7 22 -21 c29 -26 29 -30 1 -24 -13 2 -38 7
-56 10 -18 3 -35 10 -37 15 -9 13 23 79 37 79 9 0 9 3 -2 10 -13 9 -12 12 5
26 19 15 19 15 -8 9 -24 -7 -27 -5 -27 20 0 23 -4 26 -27 23 -20 -2 -29 -9
-31 -25 -2 -13 -12 -23 -25 -26 -22 -4 -21 -4 1 -6 29 -1 19 -21 -11 -21 -20
-1 -20 -2 -4 -11 9 -5 17 -21 17 -34 0 -20 -5 -25 -26 -25 -14 0 -23 -4 -19
-10 3 -6 -2 -10 -11 -10 -10 0 -25 -7 -35 -16 -16 -15 -53 -11 -115 13 -12 4
-14 -32 -14 -251 l0 -256 840 0 c553 0 840 3 840 10 0 6 5 10 11 10 5 0 7 -5
4 -10 -4 -6 21 -10 68 -10 72 0 75 1 79 25 3 14 1 25 -3 25 -5 0 -9 11 -9 25
0 30 0 30 70 5 54 -19 60 -27 45 -62 -6 -15 11 -17 199 -18 l206 -1 0 231 0
230 30 0 30 0 0 -60 c0 -33 -4 -60 -10 -60 -5 0 -10 -7 -10 -16 0 -8 5 -12 10
-9 6 4 10 -5 10 -20 0 -14 -3 -24 -7 -22 -5 3 -8 -58 -9 -134 l0 -139 78 0 78
0 0 30 c0 17 -5 30 -11 30 -8 0 -10 41 -5 147 4 82 11 249 16 372 5 123 12
226 14 229 3 3 12 0 20 -7 18 -15 83 25 88 54 2 11 8 19 13 18 6 -1 19 7 31
18 19 18 34 17 34 -4 0 -5 -8 -6 -17 -3 -17 6 -17 5 0 -8 9 -7 18 -28 18 -47
1 -28 3 -26 11 18 l9 52 34 -6 c26 -4 36 -2 41 11 3 9 10 13 15 10 5 -3 9 0 9
5 0 7 7 7 20 -1 17 -11 20 -24 20 -75 0 -35 -4 -63 -10 -64 -13 -2 -46 -2 -64
0 -9 1 -12 8 -9 20 3 11 -2 21 -11 24 -12 5 -16 0 -16 -18 0 -24 -1 -24 -112
-27 -93 -2 -113 -6 -113 -18 0 -9 11 -16 28 -18 15 -2 27 1 27 7 0 6 10 11 23
10 12 0 46 0 76 1 34 1 56 -3 61 -10 5 -9 19 -11 40 -6 27 5 31 3 26 -10 -3
-9 -6 -17 -6 -20 0 -2 -6 -1 -13 2 -16 6 -43 -23 -33 -34 4 -4 30 -6 57 -5
l49 2 0 -44 c0 -33 -4 -45 -15 -45 -8 0 -15 6 -15 14 0 7 -7 19 -15 26 -12 10
-15 7 -21 -14 -6 -25 -8 -26 -89 -26 -71 0 -84 3 -88 17 -4 16 -5 16 -6 0 -1
-11 7 -21 19 -24 18 -5 20 -14 20 -102 1 -53 3 -140 6 -193 4 -67 2 -98 -5
-98 -7 0 -11 32 -12 88 -2 157 -13 285 -25 289 -8 3 -14 -41 -19 -149 -6 -123
-4 -168 9 -230 9 -42 16 -80 16 -83 0 -3 6 -5 13 -5 8 0 19 -11 25 -25 10 -22
18 -25 62 -25 32 0 49 -4 45 -10 -3 -5 -2 -10 4 -10 5 0 11 5 13 11 2 6 19 9
38 7 l35 -3 -50 -17 c-49 -17 -50 -17 -15 -17 19 -1 52 -4 73 -7 l37 -7 2 49
c1 44 2 45 5 12 4 -40 16 -48 30 -23 6 9 26 15 58 16 73 2 75 1 75 -26 l0 -25
790 0 c721 0 790 1 790 16 0 15 3 15 26 -1 15 -9 29 -13 33 -8 23 32 279 44
352 16 40 -16 64 -17 170 -11 68 3 151 5 184 4 33 -2 236 -7 451 -11 286 -5
393 -4 398 4 4 6 13 11 19 11 8 0 7 -4 -2 -9 -10 -6 1 -9 32 -9 26 0 47 4 47
10 0 6 15 8 35 6 24 -3 35 0 35 9 0 7 -12 13 -27 13 l-28 1 30 16 c17 9 46 29
66 44 43 34 46 35 52 12 3 -14 6 -11 11 10 5 15 12 27 17 27 11 0 11 -27 0
-66 -5 -17 -5 -37 -1 -44 9 -14 19 19 21 65 0 17 5 39 10 50 10 22 4 -92 -7
-132 l-6 -23 191 0 c163 0 191 2 191 15 0 8 6 15 14 15 8 0 16 6 19 13 2 6 8
9 12 5 4 -4 0 -14 -9 -23 -9 -9 -16 -18 -16 -21 0 -2 72 -4 160 -4 153 0 160
1 160 20 0 24 15 27 24 4 3 -8 2 -12 -4 -9 -6 3 -10 1 -10 -4 0 -6 21 -11 50
-11 30 0 50 4 50 11 0 6 -7 9 -15 5 -8 -3 -15 -1 -15 3 0 5 7 11 15 15 8 3 15
1 15 -4 0 -6 7 -10 15 -10 8 0 15 -4 15 -10 0 -13 36 -13 61 0 13 7 19 7 19 0
0 -7 172 -10 531 -10 l531 0 37 29 c20 15 46 33 59 40 12 7 20 16 17 22 -4 5
-1 8 6 7 7 -2 13 2 14 9 0 6 4 15 9 20 5 5 6 3 2 -4 -4 -7 -3 -13 2 -13 13 0
33 25 26 32 -8 9 140 121 199 152 31 16 53 22 57 16 4 -6 24 5 47 25 42 36 53
41 53 26 0 -4 -18 -21 -41 -35 -22 -15 -38 -30 -35 -34 4 -3 19 3 34 14 15 11
34 24 42 29 12 6 13 5 3 -6 -17 -18 -17 -53 0 -43 8 5 8 2 -2 -9 -15 -18 -26
-23 -16 -7 3 6 1 10 -4 10 -6 0 -11 -4 -11 -10 0 -5 -16 -20 -35 -33 -19 -13
-32 -27 -28 -30 3 -4 1 -7 -6 -7 -7 0 -9 -9 -6 -22 4 -16 -8 -45 -40 -96 -25
-39 -45 -74 -45 -77 0 -12 119 -4 124 8 5 10 7 10 12 0 8 -19 35 -16 28 2 -7
18 -35 20 -52 3 -17 -17 -15 -1 5 28 47 72 103 182 103 203 0 11 4 22 8 25 13
8 54 -53 45 -67 -4 -6 -7 -39 -6 -72 1 -33 -1 -52 -3 -42 -3 9 -9 17 -12 17
-8 0 -28 -44 -38 -82 -6 -27 -4 -28 30 -28 24 0 34 4 31 12 -3 7 -1 26 3 41
l8 29 14 -26 c8 -16 19 -25 28 -21 9 3 12 -1 7 -15 -5 -17 -2 -20 24 -20 26 0
31 4 31 25 0 14 -5 25 -11 25 -6 0 -8 -9 -4 -20 4 -11 2 -20 -4 -20 -10 0 -16
21 -12 43 0 4 -4 6 -11 5 -12 -3 -34 69 -25 79 4 3 17 -7 29 -22 50 -60 88
-97 88 -86 0 6 -9 22 -20 34 -11 12 -18 27 -16 34 3 7 1 15 -4 18 -4 3 -10 -1
-13 -7 -2 -7 -4 -1 -3 14 1 27 2 27 60 24 48 -3 63 -8 77 -27 25 -33 23 -50
-2 -19 -19 23 -19 22 2 -20 17 -35 18 -42 5 -31 -19 16 -20 9 -5 -22 10 -22
-10 -2 -71 70 -14 16 -22 24 -17 19 11 -16 8 -28 -5 -20 -14 7 47 -62 72 -83
21 -17 66 -18 52 0 -7 8 -7 18 -2 27 10 15 10 14 14 -22 1 -10 57 -13 239 -14
l237 -2 0 89 c0 55 -4 89 -10 89 -7 0 -7 6 0 19 16 30 8 223 -9 229 -10 3 -12
0 -8 -12 4 -10 1 -16 -9 -16 -8 0 -17 7 -21 15 -7 19 26 58 44 51 10 -4 13 35
13 202 0 121 -4 201 -9 193 -5 -7 -15 -11 -22 -9 -8 3 -19 -1 -26 -8 -7 -7
-22 -10 -33 -7 -12 3 -20 0 -20 -7 0 -7 -8 -9 -21 -5 -18 6 -20 5 -10 -14 13
-24 0 -28 -18 -7 -21 25 33 94 63 83 9 -4 18 -2 21 3 4 6 18 10 33 11 15 0 21
3 14 6 -6 2 -10 9 -7 13 3 5 12 7 20 4 11 -5 14 18 14 130 1 127 0 136 -18
136 -10 0 -22 -8 -25 -17 -5 -12 -10 -13 -17 -6 -8 8 -8 16 0 30 6 10 11 15
11 11 0 -4 11 3 25 16 19 18 25 33 25 65 0 39 -13 55 -23 29 -3 -10 -7 -10
-17 -1 -16 15 -4 33 21 33 18 0 19 10 19 361 0 325 -2 361 -16 355 -9 -3 -20
-6 -25 -6 -5 0 -9 -8 -10 -17 0 -15 -2 -15 -8 2 -11 26 -7 32 29 40 l30 7 -1
176 c0 123 -4 168 -10 147 -5 -16 -7 -36 -4 -42 8 -23 -5 -14 -15 10 -8 19 -9
17 -11 -18 -1 -22 -1 -43 -1 -46 1 -4 -8 -15 -18 -24 -20 -18 -20 -17 -20 62
0 81 30 196 66 250 8 13 14 34 12 46 -3 16 -13 2 -41 -55 -46 -96 -56 -141
-57 -249 l0 -85 -111 -85 c-60 -46 -130 -100 -154 -119 -56 -45 -237 -184
-295 -228 -25 -18 -52 -39 -60 -45 -78 -63 -123 -87 -104 -55 8 12 13 158 6
158 -2 0 -10 -6 -18 -14 -16 -16 -19 -36 -5 -36 15 0 3 -112 -14 -129 -13 -14
-15 -8 -15 55 0 39 -3 93 -7 119 l-6 48 -105 -7 c-73 -5 -102 -4 -97 3 3 6 27
11 53 12 75 1 147 13 148 24 0 6 3 165 8 355 4 190 9 370 12 400 5 63 11 66
-78 -46 -25 -32 -103 -129 -173 -214 -70 -85 -157 -195 -195 -245 -37 -49
-107 -135 -155 -190 -48 -55 -126 -145 -173 -199 -129 -148 -202 -227 -202
-217 0 5 6 24 14 42 30 75 30 79 -3 79 -38 0 -40 15 -4 25 19 4 29 2 32 -7 2
-7 15 18 27 56 22 65 23 69 6 91 -9 12 -28 23 -41 23 -13 0 -28 7 -33 15 -6
12 -22 16 -58 14 -27 -1 -53 3 -59 8 -6 6 -11 193 -12 504 -3 430 -5 496 -18
510 -9 9 -13 12 -9 6 4 -6 8 -265 10 -576 l3 -564 -23 3 c-14 2 -29 -4 -37
-15 -16 -22 -8 -38 11 -22 12 10 16 8 21 -9 3 -12 10 -22 15 -22 5 0 6 -5 3
-10 -4 -6 -11 -8 -16 -5 -5 4 -16 -1 -25 -9 -14 -14 -17 -14 -30 -1 -21 21
-30 19 -13 -2 24 -30 42 -48 47 -45 2 2 6 1 9 -1 8 -8 -149 -16 -441 -22 -154
-3 -283 -8 -286 -10 -4 -3 -10 -19 -13 -37 -5 -32 -60 -133 -91 -167 -8 -9
-19 -43 -25 -75 -13 -73 -13 -76 -1 -76 6 0 10 14 10 31 0 33 86 209 102 209
10 0 -1 -92 -12 -100 -10 -8 -80 -130 -80 -141 0 -5 -6 -9 -12 -9 -9 0 -14
-28 -16 -98 -4 -141 -6 -160 -17 -156 -5 2 -20 -11 -32 -29 -13 -18 -31 -42
-40 -53 -51 -56 -113 -138 -113 -148 1 -6 18 8 40 32 21 23 41 39 44 33 3 -5
-14 -31 -39 -59 -25 -27 -45 -58 -45 -68 0 -16 2 -17 10 -4 8 13 10 13 10 -2
0 -38 -11 -49 -46 -42 l-34 6 -1 -48 c-1 -27 -1 -57 0 -67 1 -9 -3 -17 -8 -17
-6 0 -11 12 -11 27 0 32 -7 28 -12 -7 -5 -37 -38 -57 -38 -22 0 13 -2 14 -9 3
-5 -7 -6 -22 -4 -32 7 -26 -24 -59 -56 -59 -35 0 -52 -12 -54 -38 -1 -15 -10
-23 -29 -27 -31 -7 -48 -27 -29 -33 9 -3 8 -9 -5 -23 -9 -10 -14 -27 -11 -39
4 -15 0 -20 -13 -20 -13 0 -17 5 -13 19 4 15 -6 28 -41 52 -25 18 -46 38 -46
44 0 6 -13 24 -30 40 -16 16 -30 33 -30 37 0 5 23 -15 50 -43 28 -28 50 -56
50 -61 0 -19 18 3 23 28 3 18 -1 29 -14 37 -22 14 -26 76 -7 95 9 9 5 12 -20
12 -35 0 -41 14 -16 41 15 17 8 18 -160 12 l-176 -6 -1 34 c-1 19 -3 26 -6 17
-2 -10 -9 -18 -14 -18 -5 0 -9 -7 -9 -15 0 -12 -15 -15 -75 -15 l-76 0 2 45
c2 24 8 46 14 49 10 3 12 37 5 56 -3 6 -2 8 5 49 4 23 2 31 -10 31 -17 0 -19
31 -6 95 l9 40 2 -40 c2 -35 3 -37 9 -15 l8 25 5 -25 5 -25 2 27 c0 14 -5 28
-11 31 -10 3 -10 7 -1 19 7 8 10 18 6 21 -3 4 4 7 16 7 12 0 20 -4 16 -9 -3
-5 0 -13 6 -17 8 -5 8 -9 -1 -14 -7 -4 -9 -16 -5 -29 3 -12 10 -19 15 -16 5 3
15 -4 23 -15 17 -24 29 -15 21 16 -4 15 -2 24 5 24 6 0 11 -7 11 -15 0 -29 19
-15 22 18 3 27 5 29 12 12 16 -43 47 -99 43 -78 -3 13 -1 26 4 29 13 7 11 54
-2 54 -6 0 -3 7 5 16 15 14 17 14 32 0 8 -9 11 -16 5 -16 -6 0 -11 -9 -11 -21
0 -11 5 -17 10 -14 6 3 14 -4 19 -17 9 -22 10 -22 10 -2 1 12 8 24 16 28 20 7
19 26 -1 26 -8 0 -13 4 -9 9 3 5 21 8 41 6 37 -3 60 -15 30 -15 -12 0 -16 -5
-12 -16 3 -9 6 -18 6 -20 0 -3 5 -2 10 1 6 3 10 1 10 -5 0 -7 7 -10 15 -6 12
4 15 -3 16 -32 l1 -37 8 33 c4 18 10 35 13 39 13 12 27 -10 27 -43 0 -43 20
-45 21 -1 1 17 1 36 0 41 -1 5 5 6 13 3 8 -3 20 1 26 9 12 14 4 19 -22 15 -5
0 -8 4 -8 9 0 6 4 10 10 10 12 0 9 22 -5 32 -6 4 -2 8 8 8 9 0 17 4 17 8 0 18
-58 35 -120 35 -61 0 -142 24 -113 34 7 3 20 -3 29 -11 8 -9 21 -16 27 -16 7
0 3 6 -8 12 -19 12 -18 13 10 18 30 6 74 -6 87 -25 5 -6 8 -5 8 2 0 7 -9 18
-19 25 -18 11 -18 12 6 25 14 7 34 13 45 13 11 0 18 5 15 13 -2 6 0 20 5 29 7
15 4 18 -14 19 -17 1 -19 2 -5 6 9 2 15 9 11 14 -3 5 -10 7 -15 4 -5 -4 -9 2
-10 12 0 13 -3 12 -11 -7 l-10 -25 -10 28 c-8 21 -13 25 -23 17 -7 -6 -17 -10
-21 -9 -22 4 -34 -2 -34 -16 0 -9 -9 -15 -25 -15 -16 0 -25 6 -25 15 0 13 -4
14 -21 5 -25 -14 -49 2 -49 34 0 30 75 110 96 102 9 -3 22 -6 30 -6 9 0 13 -4
10 -9 -3 -5 -16 -7 -29 -4 -18 4 -19 3 -7 -6 22 -16 44 -13 62 8 20 24 14 31
-28 31 -28 0 -33 4 -39 30 -4 17 -10 30 -15 30 -5 0 -5 -13 0 -30 l9 -30 -44
0 c-24 0 -45 -4 -47 -9 -4 -10 -109 -24 -107 -14 3 20 -2 33 -13 30 -6 -1 -14
6 -16 16 -2 10 2 17 11 17 10 0 13 7 10 20 -3 13 1 22 11 26 22 8 32 -2 19
-18 -25 -33 -22 -50 4 -19 27 31 30 32 43 16 13 -15 11 -20 -18 -46 -38 -34
-34 -38 8 -7 17 12 30 27 30 34 0 6 7 17 15 24 12 10 18 10 30 0 8 -7 16 -10
16 -6 6 29 21 56 28 52 4 -3 13 -1 20 4 22 13 2 30 -37 31 -32 0 -34 1 -15 9
15 6 21 15 17 25 -3 8 -1 15 6 15 6 0 8 -4 5 -10 -3 -5 0 -10 8 -10 25 0 27
37 2 57 -12 10 -29 29 -38 43 -16 25 -16 25 14 26 18 1 26 -2 18 -6 -7 -5 -9
-16 -5 -26 6 -16 9 -15 31 9 25 26 34 54 15 42 -6 -3 -10 0 -10 9 0 8 4 16 9
18 5 2 3 9 -5 16 -12 11 -14 9 -14 -8 0 -13 -7 -20 -20 -20 -28 0 -25 8 17 48
l37 35 -22 18 c-13 10 -31 16 -40 13 -13 -5 -14 -4 -3 4 11 8 9 14 -8 31 -11
11 -21 26 -21 31 0 6 -4 10 -9 10 -5 0 -7 -10 -4 -22 4 -22 4 -22 -11 -4 -17
22 -13 36 12 36 14 1 14 3 -3 13 -11 7 -20 18 -21 25 -2 28 -5 32 -18 32 -8 0
-16 5 -18 12 -5 15 -28 1 -28 -18 0 -8 8 -14 18 -14 30 0 33 -11 8 -31 -25
-20 -106 -27 -106 -10 0 5 11 18 25 29 14 11 25 25 25 31 0 6 6 11 13 11 7 0
5 5 -5 11 -10 5 -15 16 -12 24 4 8 3 15 0 15 -4 0 -11 -11 -16 -25 -10 -26
-50 -36 -50 -13 0 9 -3 9 -12 0 -15 -15 -51 -15 -66 0 -9 9 -12 9 -12 0 0 -7
-11 -12 -25 -12 -14 0 -25 4 -25 8 0 4 -9 8 -20 8 -28 0 -25 -24 6 -48 22 -18
25 -27 22 -67 -2 -33 1 -45 10 -44 6 2 12 -4 12 -12 0 -8 -4 -15 -10 -15 -5 0
-10 -12 -10 -26 0 -14 4 -23 9 -20 8 6 21 -15 21 -35 0 -5 -42 -9 -94 -9 -92
0 -94 0 -98 25 -3 14 -1 28 3 31 5 3 9 -5 10 -18 0 -22 1 -22 9 -3 16 38 12
57 -12 53 -19 -2 -24 -10 -26 -46 -3 -39 -5 -42 -25 -36 -12 4 -23 11 -25 15
-8 21 -30 7 -34 -21 -4 -25 -2 -30 11 -25 13 4 12 2 -1 -9 -19 -14 -24 -36 -9
-36 5 0 12 -17 16 -37 7 -35 8 -36 15 -13 3 14 4 27 1 30 -12 10 -8 40 5 40 8
0 14 4 14 10 0 5 7 7 15 4 8 -4 15 -12 15 -20 0 -8 10 -14 26 -14 19 0 25 4
20 15 -4 12 4 15 39 15 25 0 45 -5 45 -11 0 -5 5 -7 11 -4 6 4 8 13 5 21 -4
11 -2 12 16 1 11 -6 31 -22 45 -35 18 -18 30 -22 51 -17 27 6 28 5 24 -32 -4
-36 -3 -37 12 -18 8 11 16 14 16 8 0 -19 18 -15 22 5 3 13 8 10 21 -15 9 -18
17 -36 17 -41 0 -13 -49 -8 -81 7 -20 10 -24 18 -21 42 3 23 1 29 -14 29 -11
0 -31 7 -46 14 -15 8 -30 11 -33 6 -3 -4 0 -10 6 -12 16 -5 20 -118 4 -118 -8
0 -15 5 -17 12 -7 21 -30 -4 -25 -28 3 -15 0 -24 -9 -24 -7 0 -16 -4 -19 -10
-3 -6 1 -7 10 -4 8 4 26 -1 40 -10 21 -14 25 -24 25 -65 l0 -49 -72 -1 c-40
-1 -80 -2 -88 -1 -45 3 -85 -1 -94 -10 -7 -7 2 -10 26 -10 20 0 43 -7 52 -15
21 -21 39 -19 31 4 -6 19 7 23 30 9 16 -9 99 -6 106 4 8 12 10 -61 3 -96 -4
-19 -9 -24 -14 -16 -6 9 -12 9 -29 1 -28 -16 -27 -31 4 -31 14 0 25 -4 25 -10
0 -5 -10 -10 -22 -10 -30 0 -58 -19 -40 -27 17 -7 15 -33 -2 -33 -24 0 -72 79
-67 109 2 9 -3 12 -14 7 -10 -3 -32 3 -52 15 -37 23 -54 19 -32 -8 8 -9 -21 2
-64 25 -78 42 -110 49 -135 33 -10 -6 -10 -10 2 -21 9 -7 13 -17 9 -23 -3 -6
-1 -7 6 -3 6 4 24 -2 40 -13 16 -12 33 -21 38 -21 4 0 26 -12 48 -28 l40 -27
-140 -5 c-77 -3 -177 -4 -222 -2 -80 3 -83 4 -83 27 0 18 4 23 15 19 9 -4 15
0 15 10 0 9 -8 16 -20 16 -19 0 -25 -14 -22 -53 1 -10 -5 -17 -15 -17 -13 0
-14 -3 -5 -12 26 -26 12 -36 -50 -37 -89 -1 -148 8 -148 25 0 8 5 14 11 14 5
0 7 4 4 10 -10 17 -54 11 -75 -10 -11 -11 -20 -15 -20 -9 0 6 -10 10 -22 9
-43 -4 -48 -1 -44 28 2 15 1 21 -1 14 -4 -11 -35 -13 -151 -10 -143 4 -321 30
-434 64 -26 8 -57 14 -70 14 -12 0 -80 14 -150 31 -95 23 -131 36 -139 50 -8
15 -6 19 8 19 15 0 16 2 3 11 -12 8 -10 9 7 4 12 -3 24 -1 28 5 3 5 13 10 22
10 13 0 11 -5 -8 -26 l-24 -26 28 13 c24 11 30 11 38 -2 6 -9 12 -10 17 -4 16
23 61 32 135 29 48 -3 77 0 77 6 0 5 17 10 38 9 30 0 33 -2 17 -9 -19 -8 -19
-9 1 -9 12 -1 24 5 27 12 4 10 -39 13 -214 13 -148 0 -219 -3 -218 -10 3 -30
-3 -36 -39 -36 -73 0 -317 71 -326 96 -6 17 -33 19 -38 3 -3 -9 -10 -9 -23 -2
-11 6 -46 16 -77 23 -32 6 -61 16 -64 22 -4 6 1 8 15 3 13 -4 21 -2 21 6 0 8
-13 10 -41 6 -30 -4 -70 4 -152 30 -113 35 -146 51 -129 62 13 8 22 81 11 82
-5 0 -31 0 -59 0 -27 0 -54 0 -60 0 -5 -1 -10 -12 -10 -26 0 -18 -5 -25 -19
-25 -11 0 -22 4 -26 9 -3 5 -19 12 -35 16 -17 4 -30 11 -30 16 0 5 -13 9 -29
9 -17 0 -33 5 -36 10 -3 6 -17 10 -31 10 -30 0 -39 20 -26 59 8 23 7 31 -4 35
-17 6 -19 72 -3 82 8 4 8 8 0 13 -6 4 -3 11 9 19 16 10 20 10 20 0 0 -10 3 -9
9 1 5 8 16 11 25 8 23 -9 20 -27 -6 -27 -17 0 -19 -3 -10 -12 17 -17 15 -77
-3 -84 -11 -5 -12 -11 -5 -24 6 -10 10 -29 11 -42 0 -23 0 -23 9 -2 4 12 15
24 24 27 18 7 22 43 6 49 -21 7 1 94 31 126 16 17 25 33 21 36 -5 3 -51 4
-103 4 -52 -1 -106 2 -120 6 -38 11 -47 -26 -12 -49 32 -21 50 -62 35 -77 -8
-8 -15 -8 -27 2 -10 8 -15 9 -15 1 0 -6 -11 -11 -25 -11 -14 0 -25 4 -25 9 0
12 -41 1 -58 -15 -14 -15 1 -29 19 -18 7 4 39 8 71 9 45 1 61 -3 68 -15 7 -13
-3 -16 -81 -17 -53 -1 -87 2 -84 8 4 5 1 9 -4 9 -6 0 -11 7 -11 15 0 12 -3 12
-17 -3 -13 -12 -18 -32 -17 -72 1 -63 -3 -75 -20 -61 -16 14 -14 -33 3 -53 8
-9 11 -25 8 -37 -4 -14 2 -29 20 -47 20 -20 24 -32 20 -59 -5 -30 -4 -34 11
-27 9 4 26 8 37 9 11 1 28 6 39 10 10 5 26 4 35 -2 9 -6 26 -7 38 -2 24 9 35
-6 41 -58 3 -20 19 -15 25 7 3 11 0 20 -5 20 -6 0 -5 6 2 15 14 17 51 20 67 4
7 -7 15 -6 25 4 8 9 26 17 39 20 13 3 -11 4 -53 2 -43 -2 -80 1 -84 6 -3 5 0
9 5 9 6 0 11 8 11 18 1 15 2 15 15 -2 14 -18 15 -16 15 28 0 29 4 45 10 41 6
-3 10 -24 10 -46 0 -21 5 -39 11 -39 5 0 7 5 3 12 -5 8 -2 9 9 5 10 -3 17 -2
17 3 0 6 -4 10 -10 10 -5 0 -10 5 -10 11 0 5 5 7 10 4 6 -4 10 8 10 29 0 35
13 48 23 24 4 -10 8 -9 16 2 9 12 4 16 -22 20 -17 3 -27 8 -22 12 16 10 65 -3
65 -18 0 -8 5 -14 11 -14 5 0 7 5 4 10 -3 6 -2 10 4 10 5 0 14 -6 18 -14 4 -8
17 -14 28 -13 14 2 21 -6 26 -28 4 -16 7 -24 8 -17 2 21 19 13 24 -10 3 -16 5
-13 6 10 0 19 6 32 12 30 6 -2 10 -7 10 -11 -1 -4 -1 -25 -1 -47 0 -31 -3 -38
-15 -34 -8 4 -12 10 -9 15 3 5 -4 9 -16 9 -12 0 -18 -4 -15 -10 4 -6 -8 -10
-30 -10 -20 0 -34 -4 -30 -10 3 -5 12 -7 20 -4 7 3 25 -2 39 -11 14 -10 31
-13 38 -9 18 11 48 12 54 2 6 -10 44 9 44 22 0 6 -7 10 -15 10 -10 0 -15 10
-15 30 0 38 7 38 112 1 46 -16 99 -32 118 -36 19 -4 62 -17 95 -30 33 -12 141
-44 240 -70 122 -33 185 -54 195 -67 11 -13 30 -19 63 -21 26 -1 47 -6 47 -12
0 -5 5 -3 10 5 7 12 12 12 21 3 10 -10 8 -14 -7 -19 -25 -10 -34 -24 -34 -56
0 -24 -4 -28 -27 -28 -14 0 -23 -3 -20 -6 4 -4 -13 -19 -36 -34 -29 -18 -58
-27 -92 -28 -28 -1 -73 -5 -102 -7 -48 -5 -52 -4 -56 17 l-4 23 -2 -22 c-1
-22 -31 -34 -31 -12 0 6 -8 8 -17 5 -10 -3 -49 -6 -88 -7 -61 -2 -70 0 -74 16
-2 10 5 25 15 32 10 7 12 13 6 13 -7 0 -12 5 -12 10 0 6 5 9 11 8 6 -2 14 3
16 10 3 6 -2 12 -11 12 -11 0 -16 9 -16 29 0 28 3 30 45 37 32 4 50 2 62 -7 9
-8 19 -13 22 -11 16 9 10 -19 -8 -37 -12 -12 -16 -23 -10 -27 6 -3 8 -12 5
-19 -5 -13 12 -35 26 -35 4 0 8 12 8 27 0 15 10 37 22 50 12 13 16 23 10 23
-7 0 -12 5 -12 10 0 19 27 10 38 -13 l11 -22 0 23 c1 18 6 23 24 20 13 -2 21
2 19 10 -1 6 7 12 18 12 14 0 20 -7 20 -21 0 -15 4 -19 16 -15 9 3 29 6 45 6
22 0 29 5 29 20 0 11 7 20 15 20 8 0 15 7 15 16 0 15 -9 16 -61 10 -34 -3
-113 -6 -176 -6 -74 0 -112 -4 -108 -10 4 -6 -7 -10 -24 -10 -17 0 -34 -1 -38
-2 -5 -2 -9 9 -11 25 -6 50 -27 30 -30 -29 -2 -31 -9 -65 -15 -75 -10 -16 -9
-21 3 -29 10 -7 11 -10 2 -10 -9 0 -10 -4 -1 -19 22 -35 -7 -61 -56 -51 -5 1
-88 2 -185 2 -96 0 -182 3 -190 7 -24 12 -122 1 -117 -12 2 -7 13 -11 24 -9
13 2 23 -6 31 -24 8 -17 18 -24 27 -20 8 3 15 0 15 -6 0 -7 5 -6 15 2 8 7 15
21 15 31 0 24 30 25 30 2 1 -24 26 -57 34 -44 4 6 13 8 21 4 11 -4 15 2 15 21
0 28 6 31 30 16 13 -9 13 -11 0 -20 -9 -6 -10 -10 -3 -10 6 0 14 4 17 9 9 14
41 6 41 -10 0 -17 56 -32 69 -18 6 5 -2 9 -22 9 -23 0 -32 5 -32 17 0 9 3 14
6 11 3 -4 20 -2 37 4 40 12 126 17 132 7 3 -4 14 -5 25 -2 15 4 20 0 20 -16 0
-20 -5 -21 -75 -21 -41 0 -75 -4 -75 -9 0 -5 34 -7 75 -5 l75 4 0 -29 c0 -26
-4 -29 -42 -35 -24 -4 -83 -6 -131 -5 -49 1 -91 -2 -94 -5 -4 -3 2 -6 12 -6
14 0 15 -3 5 -15 -13 -16 -16 -15 45 -18 17 -1 35 -5 41 -9 6 -4 24 1 40 11
26 16 32 17 58 4 15 -8 37 -12 48 -10 17 5 19 0 16 -56 l-3 -62 -58 -3 c-33
-2 -64 1 -72 8 -10 8 -15 8 -20 0 -4 -7 -34 -10 -78 -9 -42 1 -70 -2 -67 -7 5
-9 15 -10 108 -13 38 -1 42 -3 42 -26 0 -14 5 -25 10 -25 6 0 10 12 10 28 0
25 2 27 42 25 24 -1 52 -2 64 -2 16 -1 21 -8 22 -31 l1 -30 -127 0 c-119 0
-125 -1 -104 -16 15 -10 37 -15 63 -12 21 2 39 0 39 -4 0 -4 15 -5 33 -2 17 2
71 5 119 7 48 2 91 6 94 10 4 4 2 7 -4 7 -18 0 -14 20 6 27 9 3 24 12 32 18 8
7 28 15 43 19 15 4 25 11 22 16 -3 6 3 10 14 10 11 0 26 7 35 15 8 8 17 15 21
15 3 0 17 11 31 25 14 14 31 25 39 25 28 0 165 72 159 82 -4 7 -2 8 4 4 6 -4
29 2 52 14 l40 20 33 -22 c19 -13 60 -41 93 -63 33 -22 71 -50 84 -63 13 -12
28 -22 32 -22 9 0 62 -35 84 -55 6 -6 32 -19 58 -30 51 -21 61 -44 19 -46 -67
-2 -209 2 -340 12 -117 8 -152 7 -191 -5 -27 -7 -67 -12 -90 -11 -23 2 -42 -1
-42 -6 0 -6 150 -9 379 -8 208 1 384 -1 390 -5 13 -8 114 -14 259 -15 l93 -1
-2 -87 c-1 -49 -5 -114 -9 -146 -3 -32 -3 -60 2 -63 5 -3 6 -10 3 -15 -4 -5 1
-9 9 -9 8 0 16 7 18 15 2 10 7 12 18 5 13 -9 13 -11 0 -20 -13 -9 -13 -10 0
-10 10 0 11 -3 4 -8 -6 -4 -14 -25 -17 -47 -4 -22 -11 -41 -16 -43 -5 -2 -7
-21 -4 -42 4 -24 2 -40 -5 -40 -8 0 -18 -32 -24 -77 -1 -7 -7 -13 -15 -13 -12
0 -17 12 -14 32 0 4 -4 41 -9 83 -9 72 1 166 21 188 3 5 5 17 2 26 -4 16 -24
19 -181 25 -97 4 -348 7 -557 7 -209 0 -476 4 -594 9 -134 6 -220 6 -231 0
-16 -8 -19 -28 -22 -147 -4 -160 -10 -178 -45 -137 l-24 29 16 -33 c16 -32 16
-33 -5 -20 -17 11 -25 10 -49 -3 -29 -17 -29 -17 -33 11 -2 16 -6 148 -7 294
l-3 266 22 0 c32 0 19 25 -13 26 l-27 1 0 -295 c0 -162 -2 -297 -5 -300 -3 -3
-4 192 -3 434 3 379 5 439 18 436 13 -3 40 23 40 37 0 3 -17 5 -37 3 -21 -1
-91 -5 -155 -8 -114 -5 -118 -5 -118 15 0 27 -12 27 -35 0 -13 -14 -29 -19
-50 -17 -30 3 -30 3 -36 -57 -3 -33 -1 -61 3 -63 15 -6 8 -32 -8 -32 -14 0
-15 20 -9 192 8 188 7 193 -11 177 -11 -9 -26 -19 -34 -22 -12 -4 -11 -6 3 -6
12 -1 17 -9 17 -30 0 -56 0 -56 -137 -53 -83 2 -122 6 -113 12 12 8 10 10 -7
10 -18 0 -23 6 -23 25 0 17 4 23 14 19 8 -3 13 -11 10 -19 -7 -18 24 -27 49
-13 13 6 17 13 10 15 -7 3 -10 10 -7 17 3 8 -9 17 -32 24 -33 10 -38 9 -54
-11 -11 -13 -20 -48 -24 -89 -6 -53 -10 -66 -22 -61 -7 3 -14 0 -14 -6 0 -6 7
-11 15 -11 13 0 15 -18 11 -127 -4 -118 8 -133 14 -18 l3 50 7 -45 c4 -25 8
-35 8 -23 3 33 19 36 30 6 l10 -28 1 28 c1 16 5 26 11 22 6 -3 10 0 10 8 0 8
9 17 20 20 11 3 20 12 20 21 0 11 9 16 28 15 16 -1 20 -3 10 -6 -10 -2 -18 -8
-18 -13 0 -15 45 -36 73 -34 24 3 27 -1 27 -27 0 -22 -4 -29 -16 -27 -10 2
-19 -3 -22 -10 -2 -8 2 -12 13 -10 9 2 24 -7 32 -20 l15 -22 -131 0 c-81 0
-131 -4 -131 -10 0 -5 15 -11 33 -11 17 -1 3 -5 -33 -10 -69 -9 -332 -14 -590
-11 l-155 2 1 138 c0 165 0 162 21 162 15 0 15 1 -1 13 -24 18 -37 113 -13
104 22 -8 29 28 8 46 -35 30 -40 29 -52 -18 -6 -25 -15 -45 -20 -45 -5 0 -9
-14 -9 -31 0 -16 -4 -28 -8 -25 -5 3 -7 -7 -5 -22 2 -15 0 -44 -4 -65 -7 -35
-10 -37 -27 -24 -14 10 -19 27 -20 73 -1 42 3 58 12 56 21 -4 13 5 -25 28 -34
20 -36 20 -20 3 19 -22 22 -48 7 -58 -13 -8 -13 -45 0 -45 6 0 10 -13 10 -29
0 -16 7 -34 15 -41 26 -22 16 -220 -11 -220 -8 0 -14 6 -14 13 0 9 -2 9 -9 -1
-5 -9 -26 -12 -65 -10 l-56 3 -6 152 c-3 84 -2 157 1 163 5 8 13 6 26 -6 30
-27 33 -10 5 21 -14 15 -23 32 -19 38 3 6 8 36 9 66 7 136 19 166 57 141 12
-7 36 -20 52 -27 17 -8 38 -19 48 -24 11 -6 24 -6 36 0 21 12 68 1 103 -23 12
-9 27 -16 33 -16 5 0 -10 14 -35 30 -25 16 -45 34 -44 40 1 5 2 38 4 73 2 44
4 52 7 27 5 -40 22 -61 71 -92 25 -15 36 -18 45 -9 6 6 28 11 49 11 35 0 38 2
38 29 0 21 -9 36 -34 55 l-35 26 -4 -23 c-4 -20 -4 -20 -6 4 0 14 -10 34 -21
44 -11 10 -20 28 -20 40 0 25 -29 42 -40 25 -5 -7 -11 -6 -20 4 -7 9 -16 14
-20 11 -4 -3 -14 2 -21 11 -10 13 -10 17 2 25 12 8 6 13 -13 10 -4 0 -5 6 -2
14 4 8 1 15 -5 15 -6 0 -11 -5 -11 -11 0 -5 -4 -8 -9 -5 -5 3 -12 39 -16 80
l-7 74 -26 -7 c-25 -7 -27 -12 -32 -75 -3 -37 -10 -70 -16 -74 -11 -7 -18 -32
-15 -59 1 -14 37 -18 44 -5 2 4 3 2 1 -4 -1 -6 3 -17 9 -23 9 -10 8 -16 -6
-26 -23 -17 -15 -34 47 -95 25 -24 46 -51 45 -60 0 -10 -2 -11 -6 -2 -2 6 -9
10 -14 6 -16 -10 -89 56 -89 81 0 12 -10 30 -22 39 -18 13 -19 16 -5 12 12 -4
17 -2 15 6 -3 7 -14 14 -26 16 -12 2 -22 10 -22 18 0 10 -8 14 -22 12 -22 -3
-23 0 -24 67 0 39 -4 78 -8 88 -12 26 8 21 57 -17 l44 -34 7 297 c6 239 11
301 23 320 8 13 11 21 5 17 -11 -7 -25 21 -17 34 6 10 -7 20 -37 25 -12 3 -43
12 -70 21 -37 12 -46 19 -39 28 6 7 8 16 4 19 -3 4 -7 41 -9 84 -3 89 16 138
49 127 22 -7 37 10 37 44 0 13 6 22 15 22 8 0 15 5 15 10 0 6 -7 10 -15 10
-16 0 -21 25 -6 34 13 9 5 87 -10 97 -8 5 -24 9 -36 9 -18 0 -23 -6 -24 -27 0
-16 -5 -37 -10 -48 -5 -12 -6 41 -3 140 4 115 10 163 19 169 11 8 10 14 -2 33
-18 27 -22 27 -44 5z m7831 -1478 c0 -9 -9 -18 -20 -21 -11 -3 -20 -9 -20 -14
0 -5 7 -6 15 -3 19 8 19 -17 1 -186 -8 -69 -12 -129 -9 -133 3 -4 1 -16 -3
-25 -4 -9 -8 -28 -9 -42 -11 -121 -18 -164 -30 -194 -8 -20 -16 -55 -16 -78
-1 -26 -3 -34 -6 -19 -3 13 2 90 11 170 8 80 17 180 20 221 4 71 4 72 -4 20
-5 -30 -17 -102 -25 -160 -8 -58 -20 -130 -26 -160 -10 -50 -13 -71 -17 -137
-2 -23 -26 -31 -37 -13 -3 6 -7 37 -8 69 -4 106 -27 94 -47 -25 -7 -41 -16
-74 -21 -74 -4 0 -9 -8 -11 -17 -2 -10 -7 6 -11 36 -6 39 -13 54 -26 58 -22 6
-31 40 -32 127 -1 46 -3 55 -9 36 -11 -35 -12 -268 -1 -274 16 -10 -13 -106
-32 -106 -7 0 -7 4 1 12 16 16 15 39 -1 32 -9 -3 -17 12 -26 45 -7 27 -19 55
-27 62 -16 13 -14 16 -40 -81 -9 -36 -26 -83 -37 -105 l-20 -40 -13 64 c-8 36
-20 71 -28 79 -12 13 -17 9 -35 -24 l-20 -39 -2 130 c-1 72 -2 139 -3 150 -1
11 3 26 9 34 7 11 7 13 -2 7 -7 -4 -13 -3 -13 2 0 6 7 12 15 16 11 4 15 20 15
56 0 51 -13 67 -23 29 -4 -13 -10 -18 -17 -14 -9 6 -9 9 0 15 7 4 10 12 6 18
-3 6 -2 13 4 17 5 3 10 15 10 26 0 11 8 23 18 26 9 4 87 59 172 123 181 135
186 138 174 117 -9 -15 -28 -30 -172 -132 -39 -27 -75 -60 -81 -72 -10 -21
-10 -21 25 2 20 14 52 38 72 56 55 46 234 184 257 197 17 10 17 11 3 12 -9 0
-29 -12 -43 -26 -14 -14 -30 -24 -36 -22 -10 3 208 186 224 187 4 1 7 -6 7
-15z m-8754 -160 c4 -20 17 -46 30 -59 23 -23 23 -28 26 -234 2 -131 -1 -211
-7 -211 -5 0 -28 7 -52 16 -38 15 -43 20 -48 58 -6 42 10 390 21 445 8 38 21
32 30 -15z m7950 -9 c66 -19 172 -121 148 -142 -8 -8 -22 2 -49 37 -56 70
-102 93 -178 88 -106 -7 -184 -81 -229 -216 -25 -77 -34 -212 -18 -287 15 -74
64 -175 104 -216 89 -91 242 -97 323 -12 18 19 24 22 20 10 -4 -10 -7 -22 -7
-26 0 -22 -86 -63 -141 -68 -107 -10 -180 24 -249 116 -64 84 -85 164 -84 311
0 139 17 200 78 291 75 112 166 149 282 114z m-983 -586 l-8 -366 -58 -56
c-32 -32 -60 -57 -63 -57 -3 0 -5 15 -4 33 4 69 -3 68 -10 -3 l-7 -74 -84 -79
c-46 -43 -92 -83 -103 -89 -17 -9 -18 -7 -12 18 21 91 47 393 35 409 -4 6 -4
26 0 45 13 55 23 14 19 -74 -2 -42 0 -76 4 -76 7 0 19 31 24 60 2 8 8 16 14
18 5 2 8 8 5 13 -3 4 1 19 10 32 8 13 12 27 8 30 -3 4 -1 7 5 7 7 0 12 5 12
11 0 5 -4 7 -10 4 -6 -3 -7 1 -4 10 9 23 23 5 26 -33 3 -36 18 -45 17 -9 -1
26 4 48 13 63 4 5 10 45 14 87 4 42 11 74 15 71 5 -3 9 -15 9 -27 0 -18 2 -19
10 -7 7 11 10 3 10 -28 0 -26 -4 -41 -10 -37 -5 3 -10 1 -10 -4 0 -6 5 -11 11
-11 8 0 10 -42 7 -140 -2 -77 0 -132 3 -122 4 11 10 105 14 210 4 105 12 189
16 186 11 -7 12 69 1 82 -5 5 -5 74 -1 154 6 140 8 148 45 231 l39 87 3 -102
c1 -55 -1 -266 -5 -467z m-1205 454 c6 -16 13 -50 17 -76 5 -38 3 -51 -9 -60
-13 -10 -14 -16 -3 -36 6 -14 19 -26 27 -29 9 -3 7 2 -5 12 -14 11 -15 15 -5
14 11 -2 15 5 13 27 -1 28 0 27 17 -12 11 -24 21 -43 23 -43 3 0 7 13 9 29 2
17 0 29 -5 28 -6 -1 -15 19 -22 46 -7 26 -11 47 -8 47 2 0 20 -16 39 -36 26
-28 32 -42 28 -61 -5 -19 -2 -25 14 -30 12 -3 24 -14 28 -25 5 -16 8 -18 14
-7 7 11 13 11 34 0 46 -25 39 -38 -22 -37 -40 0 -56 -3 -54 -12 1 -7 -2 -12
-8 -12 -6 0 -10 5 -10 10 0 6 -4 10 -10 10 -5 0 -6 -8 -3 -17 6 -16 5 -16 -17
0 -28 20 -57 22 -62 5 -3 -8 -12 -8 -34 2 l-30 13 -1 131 c0 122 4 145 28 146
4 0 11 -12 17 -27z m-1993 -39 c32 -10 35 -12 15 -13 -23 -1 -23 -3 -6 -12 13
-8 24 -8 41 1 17 9 31 10 56 1 19 -5 99 -22 179 -36 79 -15 146 -28 149 -31 2
-2 -36 -5 -85 -5 -49 -1 -145 -3 -214 -4 -143 -3 -197 11 -197 52 0 16 6 23
21 24 20 2 20 2 1 6 -11 2 -31 13 -45 23 l-25 20 35 -7 c19 -3 53 -12 75 -19z
m4210 -43 c9 -28 13 -55 10 -61 -4 -6 -2 -16 3 -23 10 -12 30 -77 39 -127 2
-13 13 -53 25 -88 11 -34 18 -69 15 -76 -4 -10 -23 -14 -59 -14 -36 -1 -48 2
-38 8 13 8 13 10 0 10 -9 0 -21 -5 -27 -11 -7 -7 -14 3 -22 35 -12 49 -21 59
-44 50 -12 -4 -13 -13 -5 -46 5 -22 7 -42 6 -43 -2 -2 -43 -6 -91 -10 l-88 -6
7 38 c3 21 19 103 35 182 16 79 29 155 29 169 0 46 14 13 42 -99 28 -116 41
-141 63 -133 10 4 11 14 3 41 -5 19 -7 41 -4 49 3 8 2 13 -2 10 -8 -5 -62 147
-62 175 0 12 16 16 74 17 l74 3 17 -50z m-3765 -69 c0 -5 24 -7 53 -4 29 2 84
-1 123 -8 38 -7 85 -14 104 -15 95 -9 156 -18 165 -25 6 -4 20 -10 32 -12 21
-3 21 -5 10 -28 -12 -23 -18 -25 -95 -28 -45 -2 -82 -7 -82 -11 0 -10 141 -7
225 5 l60 8 -45 6 c-37 4 -45 9 -45 25 0 27 44 30 164 12 53 -8 114 -16 136
-16 22 -1 126 -7 231 -15 201 -14 244 -26 244 -67 0 -12 7 -19 18 -18 11 0 12
2 4 6 -10 4 -10 8 -1 19 8 10 8 14 1 14 -6 0 -9 7 -6 15 4 8 16 15 29 15 26 0
34 -19 41 -100 4 -44 1 -57 -12 -67 -16 -12 -16 -13 0 -19 9 -4 15 -13 12 -20
-9 -24 5 -45 25 -39 11 4 19 2 19 -4 0 -6 -6 -11 -12 -11 -10 0 -10 -2 0 -9
20 -12 12 -136 -8 -136 -9 0 -16 11 -18 30 -2 17 -8 35 -14 40 -7 7 -9 -1 -5
-27 3 -23 2 -38 -4 -38 -6 0 -7 5 -4 10 3 6 -1 10 -10 10 -9 0 -14 -4 -11 -9
11 -17 -39 -20 -326 -21 -191 0 -288 3 -288 10 0 5 6 10 13 10 8 0 7 3 -3 9
-10 7 -18 4 -28 -10 -9 -13 -24 -20 -41 -19 -40 3 -48 0 -28 -11 36 -21 12
-26 -125 -25 -79 0 -155 -2 -170 -7 l-26 -7 5 59 6 59 -48 0 c-25 0 -49 2 -51
5 -3 2 -6 20 -7 40 -5 61 -1 63 171 69 35 1 66 -2 70 -7 10 -14 62 -18 62 -5
0 5 12 10 27 10 24 0 25 1 10 13 -13 9 -59 11 -182 7 -128 -4 -165 -2 -165 8
0 6 -4 12 -10 12 -5 0 -10 -7 -10 -15 0 -12 -13 -15 -60 -15 -36 0 -60 4 -60
11 0 30 -53 116 -85 138 -20 13 -32 27 -27 30 5 3 9 28 11 55 1 27 2 52 3 55
3 28 -5 33 -49 30 -27 -1 -61 -1 -78 0 -25 1 -27 3 -13 12 10 5 35 8 57 5 21
-2 54 0 72 4 47 11 49 11 49 2z m-295 -12 c-3 -5 15 -7 47 -4 l53 4 -35 -16
c-19 -9 -29 -19 -22 -21 19 -7 3 -23 -24 -23 -13 0 -24 -4 -24 -10 0 -5 8 -10
18 -10 13 0 14 -2 4 -9 -11 -7 -11 -9 2 -14 10 -4 16 -1 16 8 0 8 5 15 10 15
6 0 10 -16 10 -35 0 -19 5 -35 10 -35 6 0 10 -27 10 -60 0 -36 -4 -60 -11 -60
-5 0 -8 -4 -5 -9 4 -5 1 -11 -5 -13 -21 -7 9 -47 52 -69 23 -11 39 -23 36 -26
-8 -7 -177 97 -184 113 -3 7 2 21 11 29 18 18 21 41 7 49 -4 3 -11 24 -14 46
-3 22 -14 58 -26 80 l-20 39 32 4 c27 3 26 4 -10 5 -58 3 -54 20 5 25 26 2 51
4 55 5 5 1 6 -2 2 -8z m1551 -39 l-7 -36 18 28 c10 15 22 27 27 27 10 0 66
-60 66 -71 0 -8 -265 -1 -290 8 -8 2 -57 6 -108 8 -51 2 -102 7 -115 11 -12 4
-33 6 -46 5 -27 -3 -41 13 -34 38 4 15 15 17 91 13 48 -3 90 -10 95 -16 5 -8
10 -7 16 4 6 8 13 11 17 7 4 -4 14 -2 21 5 11 9 16 9 23 -2 7 -11 21 -11 79
-1 39 6 82 9 95 5 13 -3 27 -1 31 5 13 22 27 -2 21 -38z m-3403 -19 c9 -2 17
2 17 8 0 5 11 10 25 10 14 0 25 -4 25 -10 0 -6 9 -6 26 0 22 9 29 7 45 -11 11
-12 19 -26 19 -31 0 -5 4 -7 9 -4 5 4 12 0 14 -6 4 -10 8 -9 16 2 9 13 11 12
11 -6 0 -21 -5 -21 -145 -23 -141 -2 -145 -1 -145 19 0 23 50 75 59 63 3 -5
14 -9 24 -11z m2315 -290 c8 -1 12 -19 12 -51 0 -48 0 -48 -37 -55 -59 -9
-141 -7 -148 4 -4 7 2 9 19 4 24 -6 26 -4 20 22 -3 16 -1 41 4 55 9 23 15 25
64 24 29 -1 59 -2 66 -3z m-2132 -74 c-20 -11 -21 -28 0 -28 13 0 14 -25 8
-222 -3 -123 -10 -259 -13 -303 l-7 -80 -19 37 c-11 23 -28 39 -44 44 -14 3
-20 9 -13 11 9 3 12 42 12 148 0 98 4 145 11 147 9 3 8 10 -2 25 -18 30 0 203
24 228 9 9 17 14 17 10 0 -3 8 -2 18 4 11 7 18 6 21 -1 2 -6 -4 -15 -13 -20z
m4317 -228 c3 -19 6 -37 6 -40 1 -3 6 2 11 10 7 10 10 -13 11 -75 0 -49 2
-115 4 -145 1 -30 0 -59 -4 -65 -10 -18 -11 -44 -1 -50 6 -3 10 -12 10 -18 0
-8 -3 -7 -9 2 -8 12 -22 8 -85 -19 -74 -33 -101 -35 -77 -6 8 10 9 16 1 21 -5
3 -10 18 -10 33 0 21 2 24 10 12 13 -20 14 136 1 176 -14 43 -22 114 -14 112
23 -6 95 16 101 30 8 20 35 62 38 59 1 -1 5 -18 7 -37z m1697 -59 c0 -17 -14
-20 -104 -22 -115 -2 -161 -24 -195 -92 -17 -35 -23 -63 -22 -108 0 -43 -4
-65 -15 -77 -15 -15 -16 -8 -12 84 3 72 9 107 22 129 20 35 70 72 112 85 40
12 214 12 214 1z m-3134 -76 c14 -16 34 -25 52 -25 26 0 29 3 25 28 -4 23 -3
25 9 11 7 -9 27 -23 43 -32 27 -15 28 -16 8 -17 -13 0 -23 -5 -23 -11 0 -6 7
-9 15 -5 8 3 15 1 15 -4 0 -13 -23 -13 -35 -1 -6 5 -28 11 -50 13 -35 2 -40 0
-45 -22 -4 -18 -13 -25 -29 -24 -14 0 -20 -4 -17 -13 3 -7 3 -33 -1 -58 -5
-36 -9 -44 -24 -42 -11 2 -23 7 -28 13 -12 13 -21 84 -10 84 5 0 9 9 9 20 0
11 7 23 15 26 8 4 15 17 15 30 0 13 5 24 10 24 6 0 10 7 10 15 0 21 9 19 36
-10z m-4002 -194 c219 -56 407 -106 417 -112 20 -10 26 -29 9 -29 -5 0 -10 3
-10 8 0 4 -14 8 -30 9 -17 1 -61 11 -98 22 -37 11 -210 57 -384 103 -283 74
-318 85 -318 103 0 12 3 16 8 9 4 -7 186 -57 406 -113z"/>
<path d="M5087 1033 c-2 -5 -3 -23 -3 -41 1 -31 -1 -33 -25 -30 -19 3 -25 0
-22 -9 4 -9 -4 -13 -26 -13 -21 0 -31 5 -31 15 0 8 5 15 12 15 8 0 8 4 -2 14
-18 18 -74 10 -66 -9 2 -7 1 -16 -2 -21 -4 -5 -5 -36 -1 -69 5 -51 6 -54 7
-17 3 58 22 53 22 -5 0 -35 3 -44 10 -33 5 8 10 27 10 41 0 16 7 30 17 33 15
6 15 8 3 16 -11 7 -11 10 -2 10 7 0 15 -7 18 -15 4 -8 10 -15 15 -15 4 0 6 7
3 15 -4 8 -1 15 4 15 6 0 12 -10 15 -22 3 -20 5 -19 12 10 5 20 14 32 24 32
12 0 13 -2 3 -9 -10 -6 -7 -12 12 -25 21 -13 26 -25 28 -59 1 -33 2 -28 7 23
5 41 3 68 -4 73 -6 4 -7 10 0 15 15 11 12 35 -7 55 -20 19 -25 21 -31 10z"/>
<path d="M4710 3073 c0 -7 -7 -13 -15 -13 -10 0 -15 -10 -15 -30 0 -20 5 -30
15 -30 10 0 15 -10 15 -30 0 -16 -4 -30 -9 -30 -14 0 -23 -34 -15 -54 9 -23
50 -17 46 6 -4 23 43 18 64 -8 8 -10 13 -13 9 -6 -4 7 0 12 9 12 10 0 13 -6
10 -15 -5 -11 -2 -13 10 -9 8 3 14 9 13 12 -2 8 7 12 28 12 9 0 12 -6 9 -15
-10 -25 12 -17 24 10 13 29 10 30 -109 40 l-75 6 -1 35 c-1 26 3 34 17 34 10
0 20 9 23 20 3 11 11 20 17 20 7 0 10 -7 6 -16 -10 -26 3 -35 29 -18 18 12 24
12 28 2 4 -8 6 -7 6 4 1 11 6 15 15 12 8 -3 12 -12 9 -20 -3 -8 -1 -14 5 -14
6 0 12 6 15 13 4 12 89 18 101 7 3 -3 6 -23 8 -44 1 -20 5 -39 10 -42 4 -2 5
22 2 55 -6 64 -3 66 49 46 12 -5 17 -2 17 8 0 12 -14 16 -59 19 -33 1 -57 -1
-54 -6 3 -5 -13 -6 -38 -3 -24 4 -80 10 -124 13 -44 4 -83 12 -87 18 -5 8 -8
7 -8 -1z"/>
<path d="M3855 3048 c-16 -4 -85 -8 -152 -8 -92 0 -122 -3 -120 -13 1 -8 -14
-13 -45 -15 -27 -2 -48 -7 -48 -11 0 -9 116 4 152 18 26 10 27 9 18 -15 -6
-14 -10 -36 -10 -49 0 -18 -4 -22 -20 -18 -16 4 -19 2 -14 -11 11 -29 34 -16
53 32 16 38 64 57 96 37 16 -10 22 -9 37 9 10 13 17 16 18 8 0 -7 4 -10 10 -7
5 3 18 1 29 -5 16 -8 21 -6 26 10 5 14 11 18 23 12 9 -4 33 -7 52 -7 29 0 36
4 38 23 3 21 0 22 -55 21 -32 -1 -71 -6 -88 -11z"/>
<path d="M2780 3037 c0 -2 7 -18 16 -35 16 -33 22 -35 87 -32 39 2 39 1 51
-67 0 -5 -17 -9 -38 -10 -34 -2 -37 -1 -21 11 17 12 16 14 -11 20 -53 14 -64
15 -69 5 -4 -5 3 -9 14 -9 12 0 21 -4 21 -10 0 -5 -25 -10 -56 -10 -37 0 -53
-4 -48 -11 3 -6 19 -9 35 -5 16 3 29 1 29 -4 0 -5 6 -7 14 -4 7 3 21 -7 30
-21 15 -23 20 -24 34 -13 9 7 13 9 10 3 -4 -6 12 -11 38 -12 36 -2 42 1 38 15
-5 15 -4 15 5 2 10 -13 14 -12 31 9 27 31 81 35 95 6 12 -23 48 -35 39 -12 -3
10 4 17 21 21 14 4 23 11 20 16 -4 6 -18 7 -33 3 -23 -5 -25 -4 -15 9 10 11
10 17 1 26 -18 18 -28 15 -28 -8 0 -17 -7 -20 -53 -20 l-53 0 4 35 c2 20 12
41 22 48 9 6 19 19 23 27 5 13 6 13 6 -1 1 -9 12 -21 25 -27 20 -9 23 -8 19 7
-3 14 3 16 44 15 41 -1 48 -4 46 -20 -2 -24 28 -74 44 -74 7 0 13 -5 13 -10 0
-6 -11 -8 -25 -6 -26 5 -30 -1 -17 -20 12 -19 49 2 60 35 9 24 8 31 -2 31 -9
0 -12 9 -8 25 5 29 32 39 92 33 22 -2 40 0 40 4 0 5 -20 8 -44 8 -27 0 -46 5
-48 13 -4 9 -65 13 -251 15 -136 1 -247 0 -247 -1z"/>
<path d="M4250 2871 c0 -11 5 -21 12 -23 8 -3 14 -33 16 -81 4 -66 7 -77 22
-77 10 0 21 6 24 13 5 10 7 10 12 0 3 -7 18 -13 34 -13 l29 0 3 83 c2 45 7 90
12 100 7 15 0 17 -78 17 -78 0 -86 -2 -86 -19z"/>
<path d="M2713 2812 c-13 -8 2 -35 27 -45 12 -4 11 -6 -3 -6 -16 -1 -17 -3 -3
-16 18 -18 77 -20 94 -3 9 9 12 5 12 -20 0 -18 5 -32 10 -32 6 0 10 7 10 16 0
10 6 14 15 11 8 -4 17 -2 20 2 3 5 14 7 25 4 16 -4 20 -14 20 -48 0 -25 -5
-45 -12 -47 -24 -9 -60 7 -74 32 -15 25 -15 25 -10 2 4 -21 1 -23 -32 -22 -63
3 -96 0 -88 -7 4 -4 22 -8 39 -9 88 -4 95 -8 22 -14 l-80 -6 71 -2 c48 -1 75
-7 84 -16 6 -8 18 -12 26 -9 8 3 29 6 47 7 21 1 32 7 32 16 0 8 7 18 15 22 11
5 9 7 -7 7 -20 1 -23 6 -23 45 0 45 13 68 24 44 3 -7 5 2 3 20 -2 17 1 32 6
32 5 0 3 9 -4 21 -13 19 -26 21 -134 25 -66 2 -125 0 -132 -4z"/>
<path d="M5756 2559 c-17 -15 -28 -30 -25 -32 2 -2 16 -11 32 -20 21 -14 27
-25 27 -53 0 -21 4 -33 10 -29 6 3 10 -1 10 -10 0 -8 -7 -18 -15 -21 -22 -9
-18 -44 6 -71 19 -19 20 -23 6 -29 -9 -3 -13 -12 -10 -20 3 -8 1 -14 -5 -14
-13 0 -9 -38 6 -66 6 -11 9 -32 6 -45 -4 -21 -3 -21 4 -4 l9 20 5 -20 c4 -13
6 -8 7 15 2 47 11 80 23 80 5 0 7 -4 3 -10 -3 -5 3 -18 15 -30 26 -26 27 -60
1 -53 -12 3 -20 -2 -24 -16 -3 -13 -12 -20 -24 -19 -36 3 -76 -2 -69 -9 3 -4
28 -9 54 -11 26 -2 54 -8 62 -13 11 -7 3 -9 -24 -7 -47 3 -61 -18 -15 -24 48
-7 77 2 83 26 5 20 12 22 63 22 82 -1 84 18 3 22 l-65 3 3 44 c4 39 7 45 27
45 25 0 41 26 22 34 -7 2 -4 5 6 5 9 1 17 -6 17 -14 0 -8 10 -20 22 -26 18
-10 24 -8 35 7 16 23 17 44 1 44 -7 0 -5 5 5 11 37 22 16 31 -65 29 -105 -3
-105 -3 -84 13 12 9 40 12 82 10 44 -3 64 0 64 8 0 8 -19 10 -60 7 -54 -4 -60
-2 -60 15 0 15 3 17 13 8 8 -6 17 -7 21 -3 5 4 24 7 44 7 26 0 37 4 37 15 0
11 -16 16 -65 21 -59 5 -66 8 -35 14 6 1 18 5 28 10 10 4 23 2 32 -5 11 -9 18
-10 29 -1 15 12 30 54 17 46 -5 -2 -17 2 -27 10 -26 19 -33 19 -27 -3 3 -12
-2 -18 -16 -19 -15 -1 -21 4 -22 20 l0 22 -9 -22 c-13 -32 -32 -29 -28 4 2 19
12 32 31 41 52 25 31 34 -70 31 -97 -4 -98 -4 -95 19 4 27 4 27 -32 -9z"/>
<path d="M5466 2551 c-10 -16 16 -50 48 -61 21 -7 26 -13 19 -22 -15 -19 -4
-98 13 -98 16 0 19 -27 4 -32 -6 -2 -13 -34 -17 -71 -5 -61 -4 -67 14 -67 17
0 19 5 13 50 -4 28 -3 53 2 56 4 3 8 18 8 35 0 25 4 29 28 29 33 0 52 -16 45
-39 -3 -9 2 -6 11 7 20 26 17 59 -5 53 -8 -2 -29 -6 -48 -9 l-34 -5 6 42 c3
22 2 41 -2 41 -4 0 -7 13 -6 28 0 27 2 28 40 25 22 -3 41 -8 43 -13 4 -10 62
21 62 33 0 6 -151 13 -210 9 -8 0 -18 4 -21 10 -4 7 -9 7 -13 -1z"/>
<path d="M2772 2513 l-112 -4 35 -46 c31 -40 33 -48 20 -56 -10 -5 -21 -4 -29
2 -10 9 -15 8 -20 -4 -3 -8 -13 -15 -22 -15 -11 0 -14 5 -10 16 5 12 2 15 -10
10 -8 -3 -20 -6 -25 -6 -5 0 -9 -9 -9 -19 0 -17 6 -19 53 -17 32 2 60 -2 74
-11 16 -11 27 -12 40 -4 10 6 13 11 7 11 -14 0 -24 34 -15 48 3 5 15 12 26 15
15 4 14 5 -7 6 -16 0 -28 5 -28 10 0 11 22 18 63 20 31 1 37 -22 10 -38 -15
-9 -16 -12 -4 -20 8 -5 12 -19 9 -35 -4 -18 -1 -26 8 -26 8 0 14 7 14 16 0 8
5 12 10 9 6 -4 10 9 10 33 0 26 7 45 20 57 19 17 28 57 13 53 -5 -1 -59 -4
-121 -5z"/>
<path d="M2594 2340 c-15 -5 -14 -7 0 -19 14 -12 21 -12 43 0 20 11 27 11 30
2 2 -7 11 -9 18 -6 9 3 19 -5 26 -21 7 -14 16 -26 21 -26 4 0 8 -4 8 -10 0 -6
-37 -10 -90 -10 -82 0 -107 -8 -79 -26 6 -3 8 -15 6 -26 -8 -28 2 -48 19 -41
9 3 14 -2 15 -13 0 -14 2 -15 6 -4 16 39 53 49 53 14 0 -17 12 -18 28 -2 16
16 19 11 26 -39 4 -30 2 -43 -7 -44 -7 0 -34 -1 -62 -1 -64 0 -94 -14 -45 -21
41 -7 81 -4 95 5 12 7 30 -11 30 -32 0 -11 12 -15 49 -16 44 -1 49 2 58 27 6
17 17 28 26 27 47 -4 61 6 17 11 l-50 6 -2 50 c-2 32 1 43 6 31 11 -27 19 -2
15 47 -3 34 -1 37 16 32 12 -4 20 -2 20 6 0 8 -17 10 -57 7 -73 -7 -95 0 -62
18 l24 13 -22 1 c-24 0 -33 29 -10 31 6 1 29 3 50 4 24 3 37 0 38 -8 0 -7 4
-3 8 8 4 11 18 22 31 25 13 3 -45 6 -128 5 -84 0 -159 -2 -168 -5z"/>
<path d="M4266 2238 c5 -107 4 -112 -12 -90 -41 55 -98 -5 -64 -68 12 -22 46
-16 61 11 6 13 21 19 44 19 18 0 36 6 38 13 4 10 6 10 6 0 1 -8 14 -13 31 -13
l30 0 0 120 0 120 -69 0 -70 0 5 -112z"/>
<path d="M541 2233 c-25 -13 -48 -28 -53 -35 -5 -7 -8 -71 -7 -143 1 -102 5
-134 17 -148 15 -16 14 -17 -1 -11 -14 5 -17 -1 -17 -37 0 -40 1 -41 15 -23
14 18 14 18 15 -4 0 -12 7 -25 15 -28 8 -4 12 -10 9 -16 -3 -5 -12 -4 -21 4
-14 11 -15 10 -9 -10 8 -23 -8 -32 -18 -9 -3 6 -4 3 -3 -8 2 -11 9 -19 15 -17
7 1 17 -9 22 -23 5 -14 14 -25 20 -25 6 0 4 13 -6 31 -15 29 -15 31 0 26 9 -4
16 -2 16 4 0 6 5 7 10 4 6 -3 10 -1 10 4 0 6 -4 11 -10 11 -14 0 -13 33 1 47
9 9 7 11 -7 9 -11 -2 -22 -1 -27 1 -11 7 12 43 28 43 7 0 17 5 21 12 5 7 2 8
-7 3 -11 -6 -12 -5 -1 6 7 8 12 41 12 84 0 97 9 143 29 148 14 4 14 5 -1 6
-14 1 -18 13 -20 59 l-3 57 -44 -22z"/>
<path d="M3326 1963 c-10 -10 -7 -131 4 -138 5 -3 7 -13 4 -23 -2 -9 3 -2 11
16 17 37 18 37 39 16 14 -13 16 -13 16 -1 0 9 6 18 13 20 7 3 5 6 -5 6 -18 1
-26 21 -8 21 5 0 7 6 4 13 -6 18 22 41 41 34 8 -4 17 -1 21 5 4 7 9 6 15 -3 8
-12 11 -11 19 1 6 10 10 11 10 3 0 -9 19 -13 60 -13 37 0 60 4 60 11 0 7 20
10 55 7 39 -2 55 1 55 10 0 15 -306 18 -312 2 -2 -6 -21 -4 -50 4 -25 8 -49
12 -52 9z"/>
<path d="M4254 1739 c3 -17 6 -80 6 -140 l0 -109 30 0 c19 0 30 5 30 14 0 11
11 13 45 9 l45 -4 0 130 0 131 -81 0 -81 0 6 -31z"/>
<path d="M3120 1742 c-68 -1 -129 -7 -133 -11 -14 -14 1 -47 21 -48 13 -1 18
5 18 19 -1 12 6 22 17 23 9 2 17 0 17 -3 0 -4 18 -7 41 -8 22 0 44 -6 48 -13
6 -9 9 -8 13 6 4 16 14 18 81 15 58 -3 77 -7 77 -18 0 -17 0 -17 36 0 16 8 48
17 72 21 42 7 42 7 32 -19 -5 -14 -6 -26 -1 -26 4 0 6 -22 3 -50 -4 -40 -2
-50 11 -50 8 0 18 -6 21 -12 3 -7 5 2 3 20 -2 17 0 32 4 32 5 0 6 7 3 15 -5
11 1 15 20 15 14 0 26 -6 27 -12 0 -7 2 -41 2 -75 1 -35 5 -63 8 -63 16 0 27
29 25 73 0 26 3 48 7 50 5 1 5 10 2 20 -7 16 -36 22 -92 17 -27 -2 -28 2 -7
41 8 17 14 32 12 34 -6 6 -251 10 -388 7z"/>
<path d="M4768 1373 c6 -2 12 -11 12 -19 0 -11 -23 -14 -112 -15 -108 -1 -110
-2 -49 -10 35 -4 70 -10 77 -13 7 -3 14 0 16 6 4 12 138 0 138 -13 0 -5 9 -9
20 -9 11 0 20 5 20 10 0 6 7 10 16 10 8 0 12 -5 9 -11 -5 -7 13 -10 56 -9 105
3 116 1 99 -11 -11 -8 -8 -9 15 -4 28 6 52 7 102 2 12 -1 22 2 22 8 -1 13 30
23 75 24 22 1 36 4 32 8 -4 4 -94 9 -199 10 -106 2 -208 4 -227 6 -19 2 -47 5
-62 6 -18 0 -28 7 -28 16 0 9 -9 15 -22 14 -13 0 -17 -3 -10 -6z"/>
<path d="M2537 1309 c-5 -20 -11 -21 -81 -17 -69 5 -76 3 -76 -14 0 -11 7 -18
18 -18 10 0 29 -11 42 -25 26 -27 50 -33 50 -11 0 8 7 17 16 20 23 9 36 7 30
-3 -4 -5 3 -7 14 -4 11 3 20 12 20 19 0 19 14 18 31 -2 7 -9 9 -18 3 -22 -16
-12 -16 -42 1 -42 8 0 15 -4 15 -10 0 -5 -4 -10 -10 -10 -5 0 -10 -13 -10 -28
0 -15 -5 -33 -11 -39 -7 -7 -8 -24 -4 -43 6 -29 8 -30 24 -16 10 9 20 13 23
10 4 -3 9 4 13 15 4 13 14 20 27 18 11 -1 23 4 25 11 3 8 -8 12 -36 12 -30 0
-41 4 -41 15 0 8 4 15 9 15 5 0 8 20 6 45 -3 41 -1 46 21 51 13 3 21 10 18 15
-3 5 2 9 10 9 21 0 20 14 0 35 -12 11 -20 13 -27 6 -6 -6 -26 -11 -44 -11 -26
0 -33 4 -33 20 0 28 -36 26 -43 -1z"/>
</g>
</svg>
